<svg width="40" height="40" fill="none" xmlns="http://www.w3.org/2000/svg"><path d="M33.658 31.302H6.342a3.353 3.353 0 01-3.35-3.349v-16.87a3.353 3.353 0 013.35-3.35h27.316a3.353 3.353 0 013.349 3.35v16.87a3.353 3.353 0 01-3.349 3.35zM6.342 9.014a2.071 2.071 0 00-2.07 2.069v16.87a2.07 2.07 0 002.07 2.07h27.316a2.07 2.07 0 002.069-2.07v-16.87a2.07 2.07 0 00-2.069-2.07H6.342z" fill="#DE5C28"/><path d="M20 23.285a.64.64 0 01-.424-.16L4.152 9.509 5 8.55l15 13.242L35.001 8.551l.847.96-15.424 13.615a.638.638 0 01-.424.159z" fill="#DE5C28"/><path d="M3.804 29.293l10.362-11.807.963.845L4.767 30.137l-.963-.845zm21.1-10.974l.963-.845L36.228 29.28l-.962.845L24.904 18.32z" fill="#DE5C28"/></svg>