<svg width="40" height="40" fill="none" xmlns="http://www.w3.org/2000/svg"><path d="M10.662 24.936c3.255 3.891 7.173 6.954 11.645 9.122 1.703.807 3.98 1.764 6.517 1.928.157.007.307.014.465.014 1.702 0 3.07-.588 4.184-1.798.007-.007.021-.02.028-.035.396-.478.848-.909 1.32-1.367.32-.308.65-.63.964-.957 1.456-1.518 1.456-3.447-.014-4.917l-4.11-4.11c-.697-.724-1.531-1.107-2.407-1.107-.875 0-1.716.383-2.434 1.1l-2.448 2.449c-.226-.13-.458-.247-.677-.356a8.475 8.475 0 01-.752-.41c-2.23-1.416-4.253-3.262-6.188-5.635-.978-1.237-1.635-2.277-2.093-3.337a41.167 41.167 0 001.826-1.784 47 47 0 01.63-.636c.738-.739 1.134-1.594 1.134-2.462 0-.868-.39-1.723-1.135-2.462L15.08 6.14c-.239-.24-.465-.472-.697-.712a37.48 37.48 0 00-1.388-1.374C12.29 3.363 11.462 3 10.587 3c-.869 0-1.703.362-2.434 1.06L5.595 6.617A5.255 5.255 0 004.03 9.982c-.13 1.634.171 3.37.95 5.47 1.197 3.248 3.003 6.263 5.683 9.484zm-4.964-14.81c.082-.91.43-1.67 1.087-2.326l2.544-2.543c.396-.383.834-.582 1.258-.582.417 0 .84.199 1.23.595.459.424.89.869 1.355 1.34.232.24.471.48.71.725l2.038 2.038c.424.424.643.855.643 1.279 0 .424-.219.854-.643 1.278-.211.212-.424.431-.636.643-.635.643-1.23 1.252-1.887 1.833l-.034.034c-.567.568-.479 1.108-.342 1.518.007.02.014.034.02.055.527 1.265 1.259 2.468 2.4 3.904 2.052 2.53 4.213 4.493 6.593 6.004.294.191.608.342.902.492.274.137.527.267.752.41.028.014.048.028.076.041.225.117.444.171.663.171.547 0 .902-.348 1.019-.465l2.557-2.557c.397-.397.828-.609 1.252-.609.52 0 .943.322 1.21.61l4.123 4.116c.82.82.814 1.709-.02 2.577-.288.308-.588.602-.91.91-.479.465-.978.943-1.429 1.484-.786.848-1.723 1.244-2.933 1.244-.117 0-.24-.007-.356-.014-2.243-.143-4.329-1.018-5.894-1.764-4.254-2.058-7.987-4.978-11.085-8.684-2.55-3.07-4.267-5.928-5.402-8.992-.704-1.88-.97-3.391-.861-4.766z" fill="#DE5C28"/></svg>