<svg width="70" height="70" fill="none" xmlns="http://www.w3.org/2000/svg"><g clip-path="url(#clip0_795_169)" fill="#E6E6E6"><path d="M30.255 47.457a7.712 7.712 0 10-7.712-7.711 7.724 7.724 0 007.712 7.711zm0-13.05a5.339 5.339 0 11-5.34 5.339 5.35 5.35 0 015.34-5.34z"/><path d="M2.92 32.888A3.56 3.56 0 000 36.448v6.715a3.56 3.56 0 002.92 3.559l6.94 1.258c.071.19.154.38.237.557L6.075 54.22a3.56 3.56 0 00.415 4.544l4.746 4.746a3.56 3.56 0 004.544.404l5.802-4.023.558.238 1.257 6.94a3.56 3.56 0 003.56 2.92h6.715a3.56 3.56 0 003.56-2.92l1.257-6.94.557-.238 5.802 4.023a3.56 3.56 0 004.544-.416l3.82-3.808a1.192 1.192 0 00-1.637-1.732l-3.868 3.867a1.186 1.186 0 01-1.507.143l-4.745-3.299a21.689 21.689 0 006.905-6.466 1.188 1.188 0 00-1.97-1.329c-5.632 8.206-16.526 10.88-25.317 6.214C12.28 52.42 8.39 41.9 12.03 32.638c3.64-9.264 13.65-14.322 23.267-11.757a1.188 1.188 0 00.593-2.301 22.34 22.34 0 00-11.188 0l1.02-5.683a1.187 1.187 0 011.187-.973h3.939a1.186 1.186 0 100-2.373h-3.95a3.56 3.56 0 00-3.56 2.918L22.08 19.41l-.557.237-5.743-4.081a3.56 3.56 0 00-4.544.415L6.49 20.727a3.56 3.56 0 00-.403 4.544l4.022 5.802a7.906 7.906 0 00-.237.557l-6.953 1.258zm-.547 10.215v-6.715a1.187 1.187 0 01.973-1.186l5.671-1.02a22.01 22.01 0 000 11.104l-5.67-1.02a1.186 1.186 0 01-.974-1.163zm33.434 17.88l-1.02 5.671c-.104.57-.606.983-1.187.973h-6.703a1.186 1.186 0 01-1.186-.973l-1.02-5.671c3.643.957 7.473.957 11.116 0zm-16.61-2.29l-4.746 3.287c-.468.323-1.1.269-1.506-.13l-4.746-4.747a1.186 1.186 0 01-.143-1.507l3.287-4.745a21.984 21.984 0 007.842 7.842h.012zM8.151 22.412l4.746-4.746a1.186 1.186 0 011.507-.142l4.746 3.286a21.985 21.985 0 00-7.878 7.878l-3.287-4.746a1.186 1.186 0 01.166-1.53z"/><path d="M67.628 0H36.78a2.373 2.373 0 00-2.373 2.373V13.05a2.278 2.278 0 001.187 2.029 2.562 2.562 0 001.59.344c3.405 8.53 2.622 6.549 3.832 9.562a2.373 2.373 0 00-1.863 2.302v3.56a2.373 2.373 0 002.373 2.372h1.186v3.56a2.373 2.373 0 002.373 2.373h1.187v7.118c0 .374.176.725.474.95l4.271 3.203v4.152a1.186 1.186 0 002.373 0v-4.152l4.272-3.204c.298-.224.474-.575.474-.949v-7.118h1.187a2.373 2.373 0 002.373-2.373v-3.56h1.186a2.373 2.373 0 002.373-2.372v-3.56a2.373 2.373 0 00-1.84-2.302l3.833-9.562h.38A2.373 2.373 0 0070 13.05V2.373A2.373 2.373 0 0067.627 0zM55.763 45.678l-3.56 2.67-3.558-2.67v-6.525h7.118v6.525zm7.119-14.83H52.204a1.186 1.186 0 100 2.372h7.119v3.56H45.085v-3.56h2.373a1.186 1.186 0 100-2.372h-5.932v-3.56h21.356v3.56zm-1.993-5.933h-17.37l-3.796-9.491h24.915l-3.75 9.491zm6.739-11.864H36.78V2.373h30.848V13.05z"/><path d="M40.34 7.118h2.372a1.186 1.186 0 100-2.372H40.34a1.186 1.186 0 000 2.372zm7.118 0h16.61a1.186 1.186 0 100-2.372h-16.61a1.186 1.186 0 100 2.372zM23.599 26.754a1.187 1.187 0 00-1.59-.522c-5.007 2.504-7.771 7.51-7.771 14.107a1.186 1.186 0 002.373 0c0-5.647 2.29-9.907 6.466-11.995a1.187 1.187 0 00.522-1.59zm2.503-.652a1.186 1.186 0 100-2.373 1.186 1.186 0 000 2.373z"/></g><defs><clipPath id="clip0_795_169"><path fill="#fff" d="M0 0h70v70H0z"/></clipPath></defs></svg>