<svg width="70" height="70" fill="none" xmlns="http://www.w3.org/2000/svg"><mask id="mask0_795_168" style="mask-type:luminance" maskUnits="userSpaceOnUse" x="3" y="2" width="65" height="65"><path d="M66.8 65.8V3.2H4.2v62.6h62.6z" fill="#fff" stroke="#fff" stroke-width="2.4"/></mask><g mask="url(#mask0_795_168)" stroke="#E6E6E6" stroke-width="2.4" stroke-miterlimit="10" stroke-linecap="round" stroke-linejoin="round"><path d="M37.001 27.917l-9.374-9.373c1.176-4.043.184-8.6-3.003-11.788-3.804-3.804-9.538-4.497-14.05-2.086l6.29 6.29a3.466 3.466 0 01-4.9 4.901l-6.29-6.29c-2.498 4.675-1.665 10.66 2.509 14.453a11.864 11.864 0 0011.382 2.619L43.373 50.45c-1.176 4.043-.185 8.6 3.003 11.787 3.804 3.804 9.538 4.498 14.05 2.087l-6.29-6.29a3.466 3.466 0 014.9-4.902l6.29 6.29c2.498-4.674 1.665-10.66-2.509-14.452a11.864 11.864 0 00-11.382-2.619l-9.398-9.398M37.904 36.9l5.636 5.636M27.46 26.457l5.458 5.458"/><path d="M28.66 52.54l6.027-6.025a3.359 3.359 0 000-4.75l-6.444-6.444a3.359 3.359 0 00-4.75 0L6.59 52.222a7.915 7.915 0 1011.194 11.194l2.797-2.796M56.85 17.956l-4.798-4.798-22.985 22.986 4.797 4.797L56.85 17.955zM21.288 38.025l10.694 10.694m24.241-31.596h5.173l5.295-10.224-3.583-3.582L52.886 8.61v5.15"/></g></svg>