<svg width="70" height="70" fill="none" xmlns="http://www.w3.org/2000/svg"><path fill-rule="evenodd" clip-rule="evenodd" d="M35.094 66.037c-3.533 0-6.674-.523-9.553-1.309-.392-.261-.654-.654-.523-1.177.13-.524.654-.785 1.177-.654 2.618.916 5.627 1.308 8.899 1.308 16.88 0 30.621-13.74 30.621-30.752 0-16.88-13.74-30.621-30.621-30.621-14.918 0-27.611 10.6-30.36 25.125 0 .523-.523.916-1.046.785-.393-.13-.786-.523-.655-1.047C5.781 12.254 19.26 1 35.093 1c17.798 0 32.454 14.525 32.454 32.453 0 8.768-3.402 16.881-9.553 23.031-6.15 6.15-14.263 9.553-22.9 9.553z" fill="#E6E6E6"/><path fill-rule="evenodd" clip-rule="evenodd" d="M35.094 57.793c-2.356 0-4.711-.393-7.067-1.047-.392-.262-.654-.654-.523-1.178.13-.523.654-.785 1.178-.654 2.094.654 4.318 1.047 6.412 1.047 12.3 0 22.508-10.076 22.508-22.508 0-12.3-10.207-22.377-22.508-22.377-10.992 0-20.545 8.244-22.246 19.106 0 .523-.524.785-1.047.785-.393-.131-.785-.524-.654-1.047.785-5.758 3.664-10.992 8.113-14.787 4.318-3.795 9.945-5.889 15.834-5.889 13.348 0 24.34 10.861 24.34 24.21 0 6.542-2.617 12.562-7.197 17.273-4.58 4.58-10.731 7.066-17.143 7.066z" fill="#E6E6E6"/><path fill-rule="evenodd" clip-rule="evenodd" d="M12.063 30.967H11.8l-8.113-2.225c-.524-.13-.786-.654-.655-1.177.131-.524.655-.786 1.047-.655l8.113 2.225c.524.13.786.654.655 1.178-.131.392-.393.654-.785.654zM28.42 56.746h-.262c-.523-.13-.785-.654-.654-1.178l.785-3.533-19.498.785a.894.894 0 01-.916-.916c-.13-.523.262-.916.785-.916l20.807-.785c.262 0 .654.131.785.393.131.13.262.523.131.785l-1.178 4.71c0 .393-.392.655-.785.655z" fill="#E6E6E6"/><path fill-rule="evenodd" clip-rule="evenodd" d="M23.97 68a1 1 0 01-.653-.262l-15.18-15.18c-.393-.392-.393-.915 0-1.308.262-.393.916-.393 1.308 0L23.71 65.644l1.44-2.355c.261-.392.785-.523 1.177-.262.524.262.655.785.393 1.309l-1.963 3.271c-.13.131-.393.393-.654.393h-.131zm14.264-17.666h-6.019a.894.894 0 01-.916-.916v-1.832c-1.047-.262-2.094-.785-3.01-1.309l-1.44 1.309c-.261.392-.915.392-1.177 0l-4.318-4.188c-.262-.13-.262-.392-.262-.654s0-.523.262-.654l1.308-1.309c-.523-.916-.916-1.963-1.308-3.01h-1.701a.894.894 0 01-.916-.916v-6.02c0-.523.392-.915.916-.915h1.7c.393-1.178.786-2.225 1.31-3.14l-1.31-1.178c-.261-.131-.261-.393-.261-.655 0-.261 0-.523.262-.654l4.318-4.318c.262-.393.916-.393 1.178 0l1.44 1.308c.784-.392 1.831-.916 2.878-1.178v-1.832c0-.523.524-.916.916-.916h6.02c.523 0 .916.393.916.916v1.832c1.177.262 2.224.786 3.01 1.178l1.308-1.308c.262-.131.523-.262.654-.262a1 1 0 01.655.262l4.187 4.318c.262.262.262.393.262.654 0 .262 0 .524-.262.655l-1.309 1.177c.655 1.178 1.047 2.094 1.31 3.14h1.962c.393 0 .916.393.916.917v6.02c0 .523-.523.916-.916.916h-1.963c-.262 1.046-.785 2.093-1.309 3.01l1.44 1.308c.262.392.262.916 0 1.308l-4.188 4.188c-.392.392-1.046.392-1.308 0l-1.309-1.309c-1.047.524-2.093 1.047-3.01 1.309v1.832c0 .523-.523.916-.916.916zm-5.103-1.832h4.188v-1.701c0-.393.261-.785.654-.916a10.635 10.635 0 003.795-1.57c.261-.262.785-.131 1.047.13l1.308 1.178 2.88-2.879-1.179-1.178c-.392-.261-.392-.785-.13-1.177.523-1.047 1.308-2.356 1.57-3.664 0-.524.392-.785.916-.785h1.701v-4.188H48.18c-.524 0-.916-.393-.916-.785-.262-1.178-.785-2.486-1.57-3.926a.692.692 0 01.13-1.047l1.178-1.047-3.01-3.01-1.177 1.178c-.262.262-.786.393-1.047.131-.916-.654-2.225-1.178-3.795-1.57-.393-.131-.785-.524-.785-.916v-1.57H33v1.57a.984.984 0 01-.654.916c-1.57.392-2.88.916-3.795 1.57-.393.262-.785.131-1.178-.13l-1.178-1.178-3.01 3.01 1.178 1.046c.393.262.393.785.131 1.178-.654 1.047-1.177 2.355-1.57 3.926-.13.392-.393.654-.916.654h-1.57v4.188h1.57c.523 0 .785.261.916.654.393 1.44.916 2.617 1.57 3.795.262.392.262.916-.13 1.177l-1.178 1.178 3.01 2.879 1.177-1.178c.393-.261.785-.392 1.178-.13 1.178.785 2.486 1.439 3.664 1.57.523.13.785.523.785.916v1.701h.131z" fill="#E6E6E6"/><path fill-rule="evenodd" clip-rule="evenodd" d="M35.225 43.398a9.522 9.522 0 01-9.553-9.552c0-2.617.916-4.973 2.748-6.805 1.701-1.832 4.188-2.879 6.805-2.879 5.234 0 9.553 4.319 9.553 9.684 0 2.486-1.047 4.972-2.88 6.674-1.831 1.832-4.187 2.878-6.673 2.878zm0-17.404c-4.45 0-7.72 3.402-7.72 7.852 0 4.187 3.401 7.72 7.72 7.72 4.187 0 7.72-3.533 7.72-7.72 0-4.319-3.533-7.852-7.72-7.852z" fill="#E6E6E6"/></svg>