<svg width="70" height="70" fill="none" xmlns="http://www.w3.org/2000/svg"><path d="M68.813 28.344V4.28A3.285 3.285 0 0065.53 1H23.97a3.285 3.285 0 00-3.282 3.281v5.507a16.532 16.532 0 00-1.093-.038C9.34 9.75 1 18.09 1 28.344c0 8.743 6.074 16.077 14.219 18.052v3.823c0 .587.167 1.13.438 1.609a3.274 3.274 0 00-1.532 2.766v8.75a5.475 5.475 0 005.469 5.468 5.475 5.475 0 005.468-5.468v-8.75a3.274 3.274 0 00-1.532-2.766 3.246 3.246 0 00.439-1.61v-3.822a18.631 18.631 0 0010.842-7.414l.81 1.575a16.422 16.422 0 00-1.005 2.438l-2.991.958v8.158l2.99.958c.273.848.61 1.664 1.005 2.438l-1.434 2.788 5.768 5.768 2.788-1.435c.775.396 1.591.733 2.438 1.006l.96 2.991h8.158l.959-2.99a16.6 16.6 0 002.438-1.005l2.788 1.434 5.767-5.768-1.434-2.788c.396-.774.733-1.591 1.005-2.438l2.992-.96v-8.158l-2.99-.959a16.422 16.422 0 00-1.006-2.438l1.434-2.788L60.484 32l-2.788 1.435a16.402 16.402 0 00-2.438-1.005l-.26-.804h10.533a3.285 3.285 0 003.281-3.281zm-44.844 3.281h7.181a11.972 11.972 0 01-11.556 8.75c-6.634 0-12.032-5.398-12.032-12.031 0-6.634 5.398-12.032 12.032-12.032a11 11 0 011.093.063v11.969a3.285 3.285 0 003.282 3.281zm-1.094 31.719a3.285 3.285 0 01-3.281 3.281 3.285 3.285 0 01-3.282-3.281v-8.75c0-.604.49-1.094 1.094-1.094h4.375c.604 0 1.094.49 1.094 1.094v8.75zm-1.094-13.125c0 .603-.49 1.093-1.093 1.093H18.5c-.604 0-1.094-.49-1.094-1.093v-3.422c.719.085 1.446.14 2.188.14.74 0 1.468-.059 2.187-.144v3.426zm-2.187-5.469c-9.047 0-16.407-7.36-16.407-16.406 0-9.047 7.36-16.407 16.407-16.407.346 0 .71.018 1.093.048v2.19a13.26 13.26 0 00-1.093-.05c-7.84 0-14.219 6.379-14.219 14.219s6.379 14.218 14.219 14.218a14.154 14.154 0 0013.812-10.937h2.239C34.11 39.187 27.422 44.75 19.594 44.75zm18.268-13.125h7.576l-.257.803c-.845.272-1.663.608-2.438 1.005l-2.788-1.435-3.047 3.047a18.41 18.41 0 00.954-3.42zm15.664 2.577l.566.16c1.08.305 2.11.73 3.059 1.26l.512.287 2.4-1.235 3.513 3.512-1.235 2.4.286.513c.532.948.956 1.979 1.261 3.06l.16.565 2.577.823v4.967l-2.577.825-.16.565a14.186 14.186 0 01-1.26 3.06l-.287.511 1.235 2.401-3.512 3.513-2.4-1.236-.513.287c-.948.53-1.978.956-3.06 1.262l-.565.16-.823 2.575h-4.967l-.825-2.576-.565-.16a14.186 14.186 0 01-3.06-1.26l-.511-.288-2.401 1.236-3.513-3.513 1.236-2.4-.288-.513a14.201 14.201 0 01-1.261-3.059l-.16-.565-2.575-.824v-4.967l2.576-.824.16-.566c.306-1.083.73-2.112 1.26-3.059l.288-.512-1.236-2.4 3.513-3.513 2.4 1.235.513-.286a14.06 14.06 0 013.059-1.261l.565-.16.824-2.577h4.967l.824 2.577zm-7.386-4.764H23.97a1.095 1.095 0 01-1.094-1.094V4.28c0-.602.49-1.093 1.094-1.093h41.56c.604 0 1.094.49 1.094 1.093v24.063c0 .602-.49 1.093-1.094 1.093H46.14z" fill="#E6E6E6"/><path d="M58.969 5.375a5.475 5.475 0 00-5.469 5.469c0 .612.125 1.192.31 1.742l-4.862 2.837a4.358 4.358 0 00-3.104-1.298c-1.055 0-2.01.39-2.765 1.013l-5.205-3.786a4.341 4.341 0 00.313-1.602 4.38 4.38 0 00-4.374-4.375 4.38 4.38 0 00-4.376 4.375c0 1.464.73 2.756 1.838 3.55l-2.845 7.396c-.03 0-.057-.009-.086-.009a3.285 3.285 0 00-3.282 3.282 3.285 3.285 0 003.282 3.281 3.285 3.285 0 003.281-3.281 3.26 3.26 0 00-1.156-2.48l2.852-7.414c.163.02.323.05.492.05a4.33 4.33 0 002.764-1.013l5.206 3.786a4.341 4.341 0 00-.314 1.602 4.38 4.38 0 004.375 4.375 4.38 4.38 0 004.375-4.375c0-.411-.076-.802-.182-1.18l4.875-2.844c1.002 1.118 2.441 1.836 4.057 1.836a5.475 5.475 0 005.468-5.468 5.475 5.475 0 00-5.468-5.469zM28.344 25.063a1.095 1.095 0 010-2.188 1.095 1.095 0 010 2.188zm5.468-13.125a2.19 2.19 0 01-2.187-2.188 2.19 2.19 0 012.188-2.188A2.19 2.19 0 0136 9.75a2.19 2.19 0 01-2.188 2.188zm12.032 8.75a2.19 2.19 0 01-2.188-2.188 2.19 2.19 0 012.188-2.188A2.19 2.19 0 0148.03 18.5a2.19 2.19 0 01-2.187 2.188zm13.125-6.563a3.285 3.285 0 01-3.282-3.281 3.285 3.285 0 013.282-3.281 3.285 3.285 0 013.281 3.28 3.285 3.285 0 01-3.281 3.282zM53.5 25.063h2.188v2.187H53.5v-2.188zm4.375 0h2.188v2.187h-2.188v-2.188zm4.375 0h2.188v2.187H62.25v-2.188zm-8.75-4.375h10.938v2.187H53.5v-2.188zm-41.562 7.656H9.75c0 5.427 4.415 9.843 9.844 9.843V36c-4.221 0-7.657-3.434-7.657-7.656zm45.937 19.687h-2.188A5.475 5.475 0 0150.22 53.5v2.188c4.22 0 7.656-3.436 7.656-7.657z" fill="#E6E6E6"/><path d="M38.188 48.031c0 6.634 5.397 12.032 12.03 12.032 6.634 0 12.032-5.398 12.032-12.032C62.25 41.398 56.852 36 50.219 36c-6.634 0-12.032 5.398-12.032 12.031zm12.03-9.843c5.429 0 9.844 4.415 9.844 9.843s-4.415 9.844-9.843 9.844-9.844-4.416-9.844-9.844c0-5.428 4.416-9.843 9.844-9.843z" fill="#E6E6E6"/></svg>