<svg width="100" height="100" fill="none" xmlns="http://www.w3.org/2000/svg"><g clip-path="url(#clip0_719_2183)" fill="#3E3331"><path d="M85.856 77.683a8.566 8.566 0 11-.013-17.132 8.566 8.566 0 01.013 17.132zm0-14.008a5.442 5.442 0 10-.012 10.884 5.442 5.442 0 00.012-10.884zM40.712 77.683a8.566 8.566 0 11-.017-17.131 8.566 8.566 0 01.017 17.131zm0-14.008a5.442 5.442 0 10-.016 10.884 5.442 5.442 0 00.017-10.884z"/><path d="M97.127 70.68h-4.273a1.562 1.562 0 110-3.126h3.832V59.27a6.583 6.583 0 00-.834-3.2l-8.458-15.165a.833.833 0 00-.727-.427H75.14V67.56h3.72a1.562 1.562 0 110 3.125h-5.283a1.562 1.562 0 01-1.562-1.562V38.915a1.563 1.563 0 011.562-1.563h13.09a3.958 3.958 0 013.458 2.03l8.456 15.166a9.712 9.712 0 011.227 4.72v8.73a2.685 2.685 0 01-2.68 2.681zm-63.412 0H18.733a1.563 1.563 0 01-1.562-1.563V57.1a1.563 1.563 0 013.125 0v10.454h13.419a1.562 1.562 0 110 3.125zM18.733 51.556a1.563 1.563 0 01-1.562-1.562V39.502a1.563 1.563 0 113.125 0V50a1.563 1.563 0 01-1.563 1.556z"/><path d="M73.577 70.68H47.708a1.563 1.563 0 010-3.126h24.307V26.677h-51.72v6.436a1.562 1.562 0 11-3.124 0V26.39a2.842 2.842 0 012.84-2.838h52.291a2.842 2.842 0 012.838 2.838v42.727a1.563 1.563 0 01-1.563 1.562zM24.91 58.663H5.08a1.562 1.562 0 110-3.125h19.83a1.562 1.562 0 110 3.125z"/><path d="M40.712 51.556H13.04a1.563 1.563 0 010-3.125h27.672a1.562 1.562 0 110 3.125zm-28.532-8.25H1.372a1.563 1.563 0 010-3.125h10.806a1.562 1.562 0 110 3.125zm17.326-8.631H10.431a1.563 1.563 0 110-3.125h19.075a1.562 1.562 0 110 3.125z"/></g><defs><clipPath id="clip0_719_2183"><path fill="#fff" d="M0 0h100v100H0z"/></clipPath></defs></svg>