<svg width="100" height="100" fill="none" xmlns="http://www.w3.org/2000/svg"><path d="M8.416 52.475h83.168a1.485 1.485 0 000-2.97H8.416a1.485 1.485 0 000 2.97zm12.871-6.93H41.09a1.485 1.485 0 001.485-1.485V24.258a1.485 1.485 0 00-1.485-1.485H21.287a1.485 1.485 0 00-1.485 1.485V44.06a1.485 1.485 0 001.485 1.485zm1.485-19.802h6.931v4.455a1.485 1.485 0 002.97 0v-4.455h6.931v16.831H22.772V25.743zM57.92 45.545h19.803a1.485 1.485 0 001.485-1.485V24.258a1.485 1.485 0 00-1.485-1.485H57.92a1.485 1.485 0 00-1.486 1.485V44.06a1.485 1.485 0 001.486 1.485zm1.486-19.802h6.93v4.455a1.485 1.485 0 002.97 0v-4.455h6.931v16.831H59.406V25.743zM13.861 62.871a6.436 6.436 0 106.436-6.436 6.446 6.446 0 00-6.436 6.436zm9.901 0a3.465 3.465 0 11-6.93 0 3.465 3.465 0 016.93 0zm9.901 0a6.436 6.436 0 106.436-6.436 6.446 6.446 0 00-6.436 6.436zm9.901 0a3.465 3.465 0 11-6.93 0 3.465 3.465 0 016.93 0zm9.901 0a6.436 6.436 0 106.436-6.436 6.446 6.446 0 00-6.436 6.436zm9.901 0a3.465 3.465 0 11-6.93 0 3.465 3.465 0 016.93 0zm9.901 0a6.436 6.436 0 106.436-6.436 6.446 6.446 0 00-6.436 6.436zm9.901 0a3.465 3.465 0 11-6.93 0 3.465 3.465 0 016.93 0zm9.406 10.396H8.416a1.485 1.485 0 000 2.97h84.158a1.485 1.485 0 000-2.97z" fill="#3E3331"/></svg>