<svg width="175" height="171" viewBox="0 0 175 171" fill="none" xmlns="http://www.w3.org/2000/svg">
<path fill-rule="evenodd" clip-rule="evenodd" d="M85.1309 83.5207L68.9204 27.0612L61.5987 1.60108L61.3187 0.665515C54.4908 2.86877 47.9428 6.0076 41.8428 10.0015L55.6231 33.4354C34.6851 47.1952 24.1998 74.5586 31.7133 100.654C33.1496 105.7 35.2087 110.404 37.7289 114.673L85.1157 83.4852L85.1309 83.5207Z" fill="#DE5C28" fill-opacity="0.3"/>
<path fill-rule="evenodd" clip-rule="evenodd" d="M85.1312 83.5202L139.486 96.8757L164.021 102.916L164.921 103.126C166.538 95.7611 167.255 88.1856 167.014 80.6416L140.926 81.5505C140.111 55.4962 122.958 32.2237 97.8007 26.0542C92.9589 24.8662 88.0586 24.391 83.3012 24.5319L85.1647 83.5041L85.1312 83.5202Z" fill="#DE5C28" fill-opacity="0.3"/>
<path fill-rule="evenodd" clip-rule="evenodd" d="M85.1309 83.5207L47.0051 126.573L29.7915 145.993L29.1715 146.718C34.3824 151.88 40.2469 156.301 46.5545 159.867L58.8286 135.54C80.5821 147.835 108.22 143.744 125.864 123.818C129.269 119.96 132.11 115.731 134.348 111.321L85.0973 83.5367L85.1309 83.5207Z" fill="#DE5C28" fill-opacity="0.3"/>
</svg>
