<svg width="262" height="300" viewBox="0 0 262 300" fill="none" xmlns="http://www.w3.org/2000/svg">
<path fill-rule="evenodd" clip-rule="evenodd" d="M184.334 249.727L197.613 297.78L198.131 299.535C211.044 295.566 223.447 289.768 234.965 282.394L209.431 238.018C232.398 223.261 250.099 199.272 256.936 169.534C263.843 139.805 258.617 109.859 244.63 85.6132L203.713 111.87C210.055 122.848 213.098 136.028 211.678 149.8C209.102 174.793 192.389 194.619 170.824 201.205L184.265 249.719L184.334 249.727ZM104.629 114.177L62.636 89.8782C84.8817 46.8736 132.515 23.2334 179.735 35.4525C188.851 37.8291 197.424 41.3967 205.341 45.9208L228.961 0.420124C240.763 7.23478 251.694 15.7188 261.439 25.5408L255.61 31.9479L227.472 62.9933L194.368 99.5132C185.576 90.6118 174.037 84.6385 160.989 83.1364C137.309 80.4105 115.366 93.3679 104.629 114.177V114.177ZM99.2012 128.888L52.6563 116.894L6.58728 105.029L4.88391 104.612C1.71599 118.403 0.251454 132.612 0.527842 146.874L49.6822 145.749C50.7089 194.751 82.6226 238.903 129.85 251.049C138.966 253.426 148.155 254.41 157.12 254.188L156.043 203.633C153.59 203.719 151.089 203.579 148.535 203.285C117.123 199.669 94.4205 169.848 97.8377 136.694C98.1081 134.071 98.5166 131.464 99.1321 128.88L99.2012 128.888Z" fill="#DE5C28" fill-opacity="0.3"/>
</svg>
