<svg width="262" height="300" fill="none" xmlns="http://www.w3.org/2000/svg"><path fill-rule="evenodd" clip-rule="evenodd" d="M184.334 249.727l13.279 48.053.518 1.755c12.913-3.969 25.316-9.767 36.834-17.141l-25.534-44.376c22.967-14.757 40.668-38.746 47.505-68.484 6.907-29.729 1.681-59.675-12.306-83.92l-40.917 26.256c6.342 10.978 9.385 24.158 7.965 37.93-2.576 24.993-19.289 44.819-40.854 51.405l13.441 48.514.069.008zm-79.705-135.55L62.636 89.878c22.246-43.004 69.879-66.645 117.099-54.425 9.116 2.376 17.689 5.944 25.606 10.468l23.62-45.5c11.802 6.814 22.733 15.298 32.478 25.12l-5.829 6.407-28.138 31.045-33.104 36.52c-8.792-8.901-20.331-14.875-33.379-16.377-23.68-2.725-45.623 10.232-56.36 31.041zm-5.428 14.711l-46.545-11.994-46.069-11.865-1.703-.417a173.825 173.825 0 00-4.356 42.262l49.154-1.125c1.027 49.002 32.94 93.154 80.168 105.3a98.4 98.4 0 0027.27 3.139l-1.077-50.555c-2.453.086-4.954-.054-7.508-.348-31.412-3.616-54.114-33.437-50.697-66.591.27-2.623.679-5.23 1.294-7.814l.07.008z" fill="#DE5C28" fill-opacity=".3"/></svg>