<svg width="175" height="171" fill="none" xmlns="http://www.w3.org/2000/svg"><path fill-rule="evenodd" clip-rule="evenodd" d="M85.13 83.52L68.92 27.062 61.6 1.601l-.28-.935a80.952 80.952 0 00-19.476 9.336l13.78 23.433C34.685 47.195 24.2 74.56 31.713 100.654a59.791 59.791 0 006.016 14.019l47.387-31.188.015.036zm.001 0l54.355 13.356 24.535 6.04.9.21a91.412 91.412 0 002.093-22.484l-26.088.909c-.815-26.055-17.968-49.327-43.125-55.497a54.208 54.208 0 00-14.5-1.522l1.864 58.972-.034.016z" fill="#DE5C28" fill-opacity=".3"/><path fill-rule="evenodd" clip-rule="evenodd" d="M85.13 83.52l-38.125 43.053-17.214 19.42-.62.725a82.221 82.221 0 0017.383 13.149L58.83 135.54c21.753 12.295 49.391 8.204 67.035-11.722a59.855 59.855 0 008.484-12.497l-49.25-27.784.033-.016z" fill="#DE5C28" fill-opacity=".3"/></svg>