<svg width="60" height="60" fill="none" xmlns="http://www.w3.org/2000/svg"><g clip-path="url(#clip0_719_2313)"><path d="M37.167 44.588l5.448 3.145m-2.495-8.26l6.55 3.782M35.715 28.31c-.13.518-.365.995-.683 1.405m-.835 19.978l2.739 1.581M15.405 21.145l1.374.794c.08.046.108.148.062.228L7.51 38.328a.167.167 0 01-.229.061L.976 34.75a.167.167 0 01-.061-.229l9.33-16.16a.167.167 0 01.229-.062l1.314.759m48.128 15.691a.167.167 0 00.062-.229l-9.33-16.16a.167.167 0 00-.23-.062l-6.305 3.64a.167.167 0 00-.061.23l9.33 16.16c.047.08.149.108.229.061l6.305-3.64zm-45.094 1.105a2.964 2.964 0 00-.534.242l-3.326 1.92a2.144 2.144 0 00-.784 2.929l.808 1.4a2.144 2.144 0 002.93.786l3.325-1.92a2.953 2.953 0 001.127-3.953" stroke="#3E3331" stroke-width="3" stroke-miterlimit="10" stroke-linecap="round" stroke-linejoin="round"/><path d="M17.326 47.981l2.26-1.305a2.953 2.953 0 00-2.954-5.114l-2.26 1.305a2.144 2.144 0 00-.785 2.929l.81 1.4a2.145 2.145 0 002.929.785z" stroke="#3E3331" stroke-width="3" stroke-miterlimit="10" stroke-linecap="round" stroke-linejoin="round"/><path d="M21.907 52.156l2.108-1.217a2.953 2.953 0 10-2.954-5.115l-2.107 1.217a2.145 2.145 0 00-.785 2.93l.808 1.4a2.144 2.144 0 002.93.785z" stroke="#3E3331" stroke-width="3" stroke-miterlimit="10" stroke-linecap="round" stroke-linejoin="round"/><path d="M26.968 56.054l1.499-.866a2.953 2.953 0 10-2.953-5.114l-1.5.865a2.144 2.144 0 00-.784 2.93l.808 1.4a2.145 2.145 0 002.93.785z" stroke="#3E3331" stroke-width="3" stroke-miterlimit="10" stroke-linecap="round" stroke-linejoin="round"/><path d="M29.653 53.91l.404.212 3.5 2.021c1.04.6 2.369.23 2.949-.82l.782-1.416a2.144 2.144 0 00-.805-2.894l-1.987-1.148 4.834 2.792c1.04.6 2.37.23 2.95-.82l.782-1.417a2.144 2.144 0 00-.805-2.894l-2.95-1.703 4.375 2.526a2.144 2.144 0 002.93-.785l.808-1.4a2.144 2.144 0 00-.784-2.93L43.96 41.69l3.355 1.937a2.144 2.144 0 002.96-.84l.767-1.425a2.144 2.144 0 00-.816-2.873l-.087-.05M8.235 37.072l2.263 1.304m11.836-12.418a7.133 7.133 0 01-3.385-.955l-2.81-1.62m17.101-.686l-.131-.076a4.995 4.995 0 00-4.995 0l-7.806 4.507a.902.902 0 00-.33 1.232l.29.504a4.423 4.423 0 006.042 1.619l1.274-.736a1.36 1.36 0 011.673.235 3.785 3.785 0 002.774 1.205c1.22 0 2.306-.576 3-1.471l3.36 1.94 5.532 3.193 6.215 3.588 2.479-1.434m-7.849-13.595l-2.691 1.55a4.92 4.92 0 01-4.92 0l-.058-.033" stroke="#3E3331" stroke-width="3" stroke-miterlimit="10" stroke-linecap="round" stroke-linejoin="round"/><path d="M19.817 8.264c-.183.067-.942.453-1.714.858-1.019.565-1.343.838-1.264 1.084.126.416 2.851 5.332 3.56 6.422l.486.773 1.569-.847c.854-.486 1.595-.966 1.61-1.067.026-.119-.844-1.814-1.943-3.775-1.461-2.595-2.077-3.539-2.304-3.448zm20.208 0c.183.067.942.453 1.714.858 1.019.565 1.343.838 1.264 1.084-.126.416-2.851 5.332-3.56 6.422l-.486.773-1.569-.847c-.854-.486-1.595-.966-1.61-1.067-.026-.119.844-1.814 1.943-3.775 1.461-2.595 2.077-3.539 2.304-3.448zm-7.991 8.845c-.193.029-1.044.053-1.915.067-1.165-.009-1.58-.093-1.629-.346-.088-.426-.048-6.048.053-7.343l.057-.911 1.783-.008c.982.018 1.863.085 1.923.167.08.091.128 1.996.102 4.244-.042 2.978-.13 4.101-.374 4.13z" fill="#3E3331"/></g><defs><clipPath id="clip0_719_2313"><path fill="#fff" d="M0 0h60v60H0z"/></clipPath></defs></svg>