<svg width="60" height="60" fill="none" xmlns="http://www.w3.org/2000/svg"><path d="M3.13 3.13C3.056 3.186 3 15.56 3 30.63V58h54.777l.13-1.282c.205-2.007.149-2.063-1.598-2.063h-1.468V31.577l1.412 1.32c.78.725 1.487 1.32 1.58 1.32.093 0 .167-3.847.167-9.105v-9.105h-9.198c-5.054 0-9.197.055-9.197.13 0 .093 1.263 1.375 2.824 2.88l2.824 2.75-2.601 2.601c-1.412 1.431-2.731 2.602-2.899 2.602-.185 0-2.88-1.896-5.983-4.237-3.121-2.323-5.871-4.33-6.113-4.478-.39-.241-.576-.149-3.01 1.598-1.43 1.022-5.519 3.92-9.105 6.466-3.567 2.546-7.06 5.017-7.73 5.519-.687.483-1.282.892-1.356.892-.056 0-.111-6.69-.111-14.865V3H4.802c-.854 0-1.616.056-1.672.13zm51.488 19.696c.019 1.877-.018 3.4-.111 3.4-.075 0-.558-.464-1.06-1.022-.52-.557-1.059-1.022-1.207-1.022-.149 0-2.88 2.602-6.076 5.798l-5.779 5.778-2.49-1.858c-6.299-4.7-10.572-7.86-10.684-7.86-.056 0-1.282.837-2.731 1.859C9.503 38.583 6.53 40.664 6.437 40.57c-.204-.223-.092-3.363.15-3.568.11-.111 2.526-1.84 5.332-3.846 2.806-1.988 5.816-4.143 6.69-4.775 2.322-1.71 8.528-6.058 8.64-6.058.13 0 4.199 2.992 8.714 6.374 2.118 1.598 3.976 2.917 4.088 2.917.111 0 2.415-2.211 5.128-4.924l4.924-4.943-1.078-1.003c-.594-.558-1.04-1.096-.966-1.208.074-.13 1.245-.186 3.308-.148l3.196.055.055 3.382zm-3.121 19.38v12.43l-4.553.057c-2.508.037-4.645.037-4.738 0-.111-.038-.186-2.88-.186-7.897v-7.823l4.608-4.608c2.527-2.527 4.646-4.608 4.739-4.608.074 0 .13 5.593.13 12.45zm-26.014.836v11.613h-9.476V38.137l1.022-.706c2.62-1.803 7.47-5.314 7.804-5.63.204-.205.427-.372.502-.372.092 0 .148 5.221.148 11.613zm7.135-8.733c3.512 2.639 5.463 3.995 5.705 3.995.093 0 .167 3.568.167 8.176v8.175h-9.477V43.432c0-6.169-.055-11.371-.13-11.538-.167-.483.205-.242 3.735 2.415zM12.532 54.49c-.093.074-1.486.166-3.122.204l-2.973.055-.055-4.85-.037-4.868 2.452-1.71c1.357-.947 2.769-1.987 3.122-2.285l.65-.575.056 6.949c.019 3.828-.019 7.005-.093 7.08z" fill="#3E3331"/></svg>