<svg width="60" height="60" fill="none" xmlns="http://www.w3.org/2000/svg"><path d="M20.793 1.29c-.066.153-.088.898-.044 1.664l.066 1.401 1.715.066 1.715.066-.066 1.882-.066 1.883-1.143.285c-1.935.481-4.486 1.554-6.53 2.714l-1.935 1.117-1.275-1.16c-.704-.635-1.275-1.27-1.297-1.401 0-.132.483-.745 1.12-1.38l1.122-1.138-1.165-1.204c-.66-.635-1.297-1.182-1.43-1.182-.35 0-7.144 6.874-7.144 7.224 0 .197.483.832 1.077 1.401 1.077 1.051 1.1 1.073 1.649.723.286-.197.813-.7 1.143-1.139.308-.416.638-.766.726-.766.065.022.703.547 1.429 1.204l1.297 1.204-1.32 1.38c-2.396 2.561-4.88 6.918-5.65 9.895-1.099 4.291-1.033 11.122.11 15.085 1.869 6.305 7.124 12.478 13.28 15.522C21.607 58.32 24.927 59 29.829 59c6.178 0 10.07-1.073 14.467-3.963 5.144-3.415 9.343-9.02 10.707-14.34.945-3.656 1.077-9.567.33-13.245-.748-3.656-2.793-7.662-5.585-10.902l-1.605-1.883 1.275-1.139 1.297-1.16 1.1 1.095c.615.59 1.209 1.072 1.319 1.072.308 0 2.308-2.101 2.308-2.408 0-.263-6.947-7.224-7.211-7.224-.286.021-2.462 2.189-2.462 2.452 0 .153.483.678 1.099 1.16.593.482 1.077.963 1.077 1.095.022.109-.571.81-1.297 1.51l-1.297 1.292-1.495-.898c-2.11-1.27-4.068-2.123-6.112-2.693-.968-.284-1.847-.569-1.979-.656-.132-.088-.176-.898-.11-1.993l.11-1.817 1.605.088 1.583.065V2.866c0-1.62 0-1.641-.638-1.751-.373-.088-4.419-.131-9.036-.11-6.354.022-8.42.088-8.486.285zm11.125 4.707c0 1.774-.044 1.817-2.419 1.708l-1.429-.066-.066-1.598-.066-1.576h3.98v1.532zm4.177 6.108c2.264.679 4.947 1.949 6.947 3.328 1.913 1.314 4.903 4.422 5.98 6.196 1.232 1.992 2.485 5.145 2.947 7.356.55 2.649.461 7.334-.22 9.742-2.22 8.035-7.937 13.858-15.654 16.004-4.067 1.116-9.784.941-13.72-.394-6.947-2.365-12.333-8.166-14.224-15.282-3.034-11.471 3.364-22.987 14.819-26.709 2.264-.722 3.231-.832 7.519-.766 3.341.044 4.22.11 5.606.525z" fill="#3E3331"/><path d="M27.52 21.476c.023 6.37 0 6.983-.351 7.18-.22.11-.77.57-1.253.986-2.177 1.904-2.287 5.057-.264 7.202 1.583 1.686 4.177 2.255 6.551 1.401 2.77-.985 4.178-4.553 2.88-7.158-.44-.832-1.626-2.102-1.978-2.102-.682 0-.748-.657-.814-7.466l-.043-6.874-2.375-.066-2.353-.066v6.963zm4.134 11.953l.066 1.27-1.715-.066-1.693-.066-.22-.722c-.132-.482-.11-.898.044-1.27.242-.525.33-.547 1.847-.481l1.605.065.066 1.27zM16.044 20.03c-.594.636-1.056 1.227-1.056 1.358 0 .263 2.001 2.342 2.265 2.342.264 0 2.572-2.21 2.572-2.451 0-.285-2.242-2.365-2.528-2.365-.11 0-.681.504-1.253 1.117zm25.129-.109c-.615.547-1.12 1.16-1.12 1.358 0 .35 2.044 2.451 2.396 2.451.242 0 2.44-2.189 2.44-2.451 0-.198-2.22-2.343-2.44-2.365-.088 0-.66.46-1.276 1.007zM10.68 31.678c-.067.175-.088 1.029-.045 1.926l.066 1.62H14v-3.721l-1.605-.066c-1.187-.044-1.627.022-1.715.24zm35.199-.066c-.264.416-.33 2.89-.088 3.306.176.35.461.416 1.583.416.791 0 1.495-.11 1.648-.263.154-.153.264-.876.264-1.751 0-1.226-.066-1.511-.417-1.708-.55-.285-2.815-.285-2.99 0zM16.066 44.135c-.594.613-1.077 1.226-1.077 1.357 0 .394 2.066 2.32 2.462 2.32.33 0 2.374-2.057 2.374-2.407 0-.176-2.33-2.409-2.528-2.409-.066 0-.616.504-1.231 1.139zm25.13.022c-.638.635-1.144 1.291-1.144 1.445 0 .372 1.957 2.189 2.353 2.21.285 0 1.67-1.247 2.264-2.035.264-.35.176-.526-.901-1.599-.638-.634-1.231-1.182-1.297-1.182-.066 0-.638.526-1.275 1.16zM27.477 50.33c-.088 1.97-.176 1.905 2.792 1.818l1.979-.066.022-1.708.021-1.686h-4.726l-.088 1.642z" fill="#3E3331"/></svg>