<svg width="60" height="60" fill="none" xmlns="http://www.w3.org/2000/svg"><g clip-path="url(#clip0_719_2365)" fill="#3E3331"><path d="M29.144.81c-2.601 3.156-6.718 9.156-8.613 12.552-2.807 5.035-5.046 11.62-5.873 17.293-.465 3.104-.775 7.655-.62 9.31l.103 1.242-1.498 1.43c-1.895 1.794-2.997 3.242-3.945 5.208-.982 2-1.412 3.655-1.636 6.12-.207 2.414-.224 5.81-.035 5.932.155.086.69-.242 3.221-2 .758-.518 1.637-1.087 1.964-1.26 1.016-.516 3.858-1.482 4.203-1.43.258.034.482.483.982 1.983.361 1.069.775 2.138.947 2.396.275.431.293.431.74.138.259-.155.81-.586 1.24-.93 2.223-1.811 5.254-3.242 7.063-3.328l.723-.035.035 2.241.017 2.242 1.774.034 1.757.052v-2.31c0-1.276.051-2.362.138-2.397.172-.12 2.876.69 4.082 1.224 1.154.5 2.652 1.448 4.013 2.57 1.464 1.189 1.499 1.154 2.67-2.19l.586-1.638.74.069c1.326.103 4.203 1.465 6.58 3.137C51.708 59.31 52.74 60 52.792 60c.052 0 .087-1.5.087-3.328 0-3.793-.259-5.258-1.31-7.93-.878-2.225-1.911-3.725-3.978-5.776l-1.774-1.76v-2.982c0-9.43-2.584-18.5-7.717-27.017C36.257 8.12 30.35 0 29.953 0c-.069 0-.43.362-.81.81zm1.498 6.035c.293.465.861 1.258 1.24 1.776 3.927 5.327 7.028 11.707 8.595 17.672 1.774 6.81 2.084 13.276.948 20.07-.362 2.172-1.568 7.378-1.74 7.585-.035.035-.913-.293-1.964-.741-1.05-.448-2.738-1.017-3.755-1.259-1.016-.241-1.946-.483-2.05-.5-.172-.051-.223-1.103-.223-4.551v-4.483h-3.635l.018 4.362c.017 2.38.017 4.43.017 4.534-.017.104-.345.242-.74.293-1.224.173-3.738.966-5.444 1.707-.878.38-1.619.673-1.653.638-.293-.345-1.395-5.051-1.826-7.741-1.998-12.448.775-24.5 8.147-35.552 1.67-2.517 3.221-4.62 3.393-4.62.07 0 .362.362.672.81zM14.727 47.017c.051.466.31 1.638.534 2.62.224.984.396 1.811.379 1.846a17.1 17.1 0 01-1.172.327c-.62.155-1.584.483-2.135.707-.569.224-1.085.414-1.172.414-.465 0 .414-2.776 1.413-4.483.706-1.207 1.705-2.448 1.894-2.327.07.051.19.448.259.896zm31.693.12c.964 1.363 2.325 4.208 2.445 5.122.121.81-.034.844-1.343.258-.517-.224-1.43-.517-2.032-.672-.603-.155-1.12-.31-1.154-.345-.121-.103 1.016-5.465 1.154-5.465.086 0 .499.5.93 1.103z"/><path d="M28.162 21.328c-1.55.327-2.343.672-3.652 1.655-2.515 1.88-3.944 5.569-3.324 8.603.81 4.07 3.91 6.845 8.095 7.293 1.361.138 3.153-.206 4.565-.879 1.481-.69 3.238-2.43 3.962-3.93 1.36-2.76 1.377-5.398.068-8.035-1.17-2.328-3.272-3.983-5.942-4.656-1.55-.396-2.136-.413-3.772-.051zm3.307 3.758c.568.173 1.206.552 1.774 1.07 2.29 2.051 2.463 4.982.43 7.258-1.067 1.19-2.204 1.672-3.875 1.655-2.067-.034-3.238-.741-4.41-2.741-.31-.552-.482-1.121-.533-1.88a5.127 5.127 0 016.614-5.362z"/><path d="M28.627 28.672c-.586.587-1.068 1.207-1.068 1.363 0 .362 1.998 2.379 2.36 2.379.344 0 2.463-2.052 2.463-2.38 0-.344-2.101-2.448-2.429-2.448-.137 0-.74.483-1.326 1.086zM2.756 3.034c-.38.828-.69 1.587-.69 1.707 0 .207 9.01 4.57 9.44 4.57.293 0 1.67-2.811 1.533-3.173a.92.92 0 00-.414-.397c-.671-.241-8.422-3.879-8.56-4.034-.379-.362-.655-.086-1.31 1.327zm52.965-1.275c-.19.12-2.274 1.12-4.65 2.241-3.411 1.603-4.307 2.086-4.272 2.328.069.62 1.257 2.982 1.498 2.982.138 0 1.051-.379 2.033-.845.982-.448 2.101-.965 2.463-1.137 3.014-1.38 4.874-2.31 4.96-2.449.138-.224-1.274-3.327-1.515-3.327-.086 0-.328.103-.517.207zM0 15.948v1.81l5.305-.034 5.288-.052.052-1.776.051-1.758H0v1.81zm49.158 0v1.81l5.34-.034 5.357-.052.052-1.776.051-1.758H49.176l-.018 1.81zM8.182 23.983c-1.792.845-3.91 1.827-4.685 2.172-.982.431-1.43.724-1.43.914 0 .431 1.188 2.931 1.447 3.035.344.137 9.232-3.983 9.473-4.397.155-.241-1.12-3.293-1.36-3.276-.087 0-1.637.707-3.445 1.552zm39.926-1.363c-.482.794-1.258 2.673-1.223 2.949.034.241.775.672 2.808 1.62 1.515.708 3.565 1.673 4.564 2.156 1.809.862 2.119.896 2.429.293.292-.535 1.188-2.535 1.188-2.655 0-.052-.672-.414-1.498-.793-1.912-.88-2.326-1.07-5.46-2.552-1.413-.673-2.584-1.224-2.619-1.224-.017 0-.103.103-.19.207z"/></g><defs><clipPath id="clip0_719_2365"><path fill="#fff" d="M0 0h60v60H0z"/></clipPath></defs></svg>