<svg width="60" height="60" fill="none" xmlns="http://www.w3.org/2000/svg"><g clip-path="url(#clip0_719_2295)" fill="#3E3331"><path d="M24.461.445c-6.018 1.575-11.54 7.207-13.287 13.508-.647 2.352-.69 7.854-.087 10.12 1.208 4.531 4.142 8.674 7.874 11.112.906.605 1.747 1.166 1.855 1.252.13.108.216 1.338.216 2.87v2.675h-1.51c-.82 0-1.618.065-1.726.151-.13.087-.237.885-.216 1.835v1.683l1.79.064 1.77.065v7.294l2.545.064c1.38.043 5.392.022 8.887-.043l6.363-.108.065-3.603.043-3.604 1.682-.065 1.661-.064v-3.669h-3.235l-.065-2.74-.065-2.74.712-.367c1.424-.712 3.904-2.784 5.112-4.273 2.61-3.215 4.013-6.387 4.573-10.357.324-2.244.022-5.761-.69-8.048C46.787 7.199 41.394 1.934 35.246.337c-1.92-.496-8.757-.431-10.785.108zm9.47 3.452c4.875 1.425 8.585 4.618 10.57 9.106 1.272 2.892 1.639 6.69.927 9.56-.518 2.006-2.028 5.113-3.279 6.645-1.186 1.49-3.322 3.172-5.026 3.95a66.38 66.38 0 00-1.531.711c-.26.151-.346.906-.432 4.143l-.108 3.97-1.294.022c-.712 0-1.424-.022-1.553-.086-.216-.065-.28-1.683-.28-7.078v-6.97l1.035-.69c2.847-1.856 3.343-5.502 1.122-8.049-2.006-2.265-5.587-2.438-7.723-.366-1.337 1.316-1.66 2.028-1.66 3.905 0 1.381.086 1.77.603 2.654.518.885 1.855 2.115 2.546 2.352.13.043.216 2.72.216 7.078v7.013l-1.424.107c-.863.065-1.51.022-1.575-.107-.086-.13-.194-1.9-.216-3.928l-.086-3.733-1.963-1.014c-2.631-1.36-5.457-4.143-6.687-6.538-2.588-5.178-2.415-10.767.518-15.687.863-1.424 3.106-3.776 4.573-4.79 1.726-1.165 4.94-2.33 7.593-2.697 1.122-.151 3.753.107 5.134.517zm-2.675 17.824c.388.345.345 1.79-.065 2.2-.388.39-1.726.432-2.157.066-.388-.324-.669-1.533-.453-2.137.216-.69 1.985-.777 2.675-.13zm3.861 25.764l-.065 1.726-4.875.043c-2.674.022-4.96-.043-5.112-.13-.28-.172-.367-2.956-.108-3.214.065-.087 2.416-.151 5.177-.151h5.048l-.065 1.726zM1.618 4.912C1.25 5.71.949 6.422.906 6.508c-.043.087 1.531.971 3.494 1.985 3.516 1.748 3.581 1.791 3.883 1.36.712-1.1 1.445-2.784 1.273-2.956-.28-.28-6.73-3.431-7.032-3.431-.151 0-.561.647-.906 1.446zm52.416.108c-1.66.82-3.17 1.66-3.365 1.833-.323.28-.302.432.389 1.813.43.82.905 1.489 1.078 1.489.453 0 6.773-3.28 6.881-3.56.173-.432-1.23-3.13-1.596-3.108-.216 0-1.726.69-3.387 1.532zM0 19.218v1.942l3.516-.043 3.494-.065.065-1.899.065-1.877H0v1.942zm52.848 0v1.942h7.097l.129-.712c.086-.367.108-1.23.065-1.877l-.065-1.187-3.602-.065-3.624-.043v1.942zM4.551 29.77c-1.92.949-3.559 1.747-3.623 1.812-.13.15.992 2.74 1.359 3.15.215.237.82.022 3.731-1.402 1.898-.928 3.495-1.791 3.56-1.92.064-.195-1.295-3.345-1.446-3.345-.043 0-1.64.776-3.58 1.704zm47.283-1.424c-.108.15-.496.863-.884 1.596-.496.993-.604 1.381-.41 1.532.323.26 5.112 2.655 6.255 3.13l.798.345.777-1.511c.41-.842.733-1.618.69-1.705-.043-.108-1.64-.97-3.559-1.92-2.545-1.252-3.537-1.662-3.667-1.467zM24.59 58.166V60h10.786v-3.668H24.59v1.834z"/></g><defs><clipPath id="clip0_719_2295"><path fill="#fff" d="M0 0h60v60H0z"/></clipPath></defs></svg>