<svg width="60" height="60" fill="none" xmlns="http://www.w3.org/2000/svg"><path d="M29.479 6.334a15.1 15.1 0 0110.717 4.447 15.15 15.15 0 014.44 10.735 15.15 15.15 0 01-4.44 10.735 15.097 15.097 0 01-10.717 4.447c-4.18 0-7.97-1.7-10.712-4.447a15.151 15.151 0 01-4.444-10.735c0-4.188 1.697-7.983 4.439-10.73a15.099 15.099 0 0110.717-4.452zM15.169 39.86a1.305 1.305 0 112.264 1.303L13.36 48.23l7.052-1.008a1.31 1.31 0 011.391.791l2.855 6.81 4.87-8.453a1.305 1.305 0 112.264 1.303l-6.135 10.645a1.31 1.31 0 01-2.396-.046l-3.481-8.31-8.708 1.244a1.31 1.31 0 01-1.315-1.95l5.414-9.394-.001-.001zm26.357 1.302a1.305 1.305 0 112.263-1.303l5.415 9.396a1.306 1.306 0 01-1.315 1.946l-8.71-1.24-3.48 8.31a1.31 1.31 0 01-2.38.079l-2.82-4.894a1.307 1.307 0 112.263-1.314l1.542 2.676 2.851-6.807c.226-.536.79-.876 1.392-.79L45.6 48.23l-4.073-7.067zM29.48 0c5.93 0 11.3 2.41 15.187 6.303a21.469 21.469 0 016.292 15.213c0 5.94-2.406 11.321-6.292 15.214a21.396 21.396 0 01-15.187 6.303 21.4 21.4 0 01-15.188-6.303A21.469 21.469 0 018 21.516a21.47 21.47 0 016.292-15.213A21.397 21.397 0 0129.48 0zm13.335 8.16A18.783 18.783 0 0029.48 2.626a18.783 18.783 0 00-13.335 5.532 18.847 18.847 0 00-5.522 13.358c0 5.218 2.11 9.94 5.522 13.358a18.785 18.785 0 0013.335 5.532c5.208 0 9.923-2.115 13.335-5.532a18.846 18.846 0 005.523-13.358c0-5.217-2.112-9.94-5.523-13.358zM20.713 21.487a1.314 1.314 0 010-1.857 1.309 1.309 0 011.852 0l4.94 4.948 8.892-8.908a1.309 1.309 0 011.853 0 1.315 1.315 0 010 1.857l-9.82 9.835a1.309 1.309 0 01-1.852 0l-5.865-5.875zm17.63-8.85a12.487 12.487 0 00-8.863-3.676 12.496 12.496 0 00-8.867 3.674 12.54 12.54 0 00-3.667 8.881c0 3.47 1.402 6.61 3.667 8.882a12.496 12.496 0 008.867 3.674 12.49 12.49 0 008.864-3.676 12.53 12.53 0 003.67-8.88 12.53 12.53 0 00-3.67-8.879z" fill="#3E3331"/><path d="M30.335 7.191c4.184 0 7.973 1.7 10.716 4.447a15.15 15.15 0 014.44 10.735 15.15 15.15 0 01-4.44 10.735 15.097 15.097 0 01-10.716 4.447c-4.181 0-7.97-1.7-10.712-4.447a15.151 15.151 0 01-4.445-10.735c0-4.188 1.698-7.983 4.44-10.73A15.1 15.1 0 0130.335 7.19zm-14.31 33.527a1.305 1.305 0 112.263 1.303l-4.072 7.066 7.052-1.007a1.31 1.31 0 011.391.79l2.855 6.81 4.87-8.453a1.305 1.305 0 112.264 1.303l-6.135 10.645a1.31 1.31 0 01-2.396-.046l-3.481-8.31-8.709 1.245a1.31 1.31 0 01-1.315-1.95l5.414-9.395v-.001zm26.357 1.303a1.305 1.305 0 112.263-1.303l5.415 9.395a1.306 1.306 0 01-1.315 1.946l-8.71-1.24-3.48 8.31a1.31 1.31 0 01-2.38.079l-2.821-4.894A1.307 1.307 0 1133.617 53l1.543 2.676 2.85-6.807a1.313 1.313 0 011.393-.79l7.052 1.008-4.073-7.066zM30.336.857c5.93 0 11.3 2.41 15.187 6.303a21.469 21.469 0 016.292 15.213c0 5.94-2.406 11.321-6.292 15.214a21.395 21.395 0 01-15.187 6.303 21.4 21.4 0 01-15.188-6.303 21.469 21.469 0 01-6.292-15.214c0-5.94 2.405-11.32 6.292-15.213A21.397 21.397 0 0130.336.857zm13.334 8.16a18.783 18.783 0 00-13.334-5.533A18.783 18.783 0 0017 9.016a18.847 18.847 0 00-5.523 13.358A18.85 18.85 0 0017 35.732a18.785 18.785 0 0013.335 5.532c5.208 0 9.922-2.115 13.334-5.532a18.845 18.845 0 005.523-13.358c0-5.217-2.11-9.94-5.523-13.358zM21.568 22.344a1.314 1.314 0 010-1.856 1.31 1.31 0 011.853 0l4.939 4.947 8.892-8.907a1.31 1.31 0 011.853 0 1.314 1.314 0 010 1.856l-9.819 9.836a1.309 1.309 0 01-1.853 0l-5.865-5.876zm17.631-8.85a12.487 12.487 0 00-8.864-3.676 12.496 12.496 0 00-8.866 3.674 12.54 12.54 0 00-3.668 8.882 12.54 12.54 0 003.668 8.881 12.496 12.496 0 008.866 3.674c3.462 0 6.597-1.405 8.864-3.676a12.53 12.53 0 003.671-8.88c0-3.467-1.403-6.607-3.67-8.879z" fill="#3E3331"/></svg>