<svg width="60" height="60" fill="none" xmlns="http://www.w3.org/2000/svg"><path d="M18.277 1.016c-4.68.044-8.485.11-8.485.175 0 .262 3.28 6.636 3.5 6.767.393.24.24.916-.329 1.287-.765.502-1.815 2.009-2.078 2.99-.306 1.092.066 2.642.853 3.733l.635.852-2.34 2.335c-3.981 3.973-6.496 8.534-7.808 14.122-.875 3.842-1.006 5.37-1.116 13.904L1 55.651h30.225v3.033l.94.131c1.334.197 26.245.044 26.573-.174.196-.131.262-3.776.262-16.982V24.874H33.477l-1.115-1.703c-1.443-2.183-2.8-3.754-4.309-4.976-.656-.546-1.202-1.092-1.202-1.2 0-.132.24-.656.546-1.158 1.181-2.03.919-4.365-.7-5.959-.524-.524-.94-1.113-.94-1.287 0-.197.744-1.834 1.64-3.624.897-1.79 1.64-3.405 1.64-3.58 0-.196-.24-.305-.7-.305-.393 0-.918-.022-1.158-.066-.24-.021-4.243-.021-8.901 0zm4.768 4.082c.066.175-.219.895-.612 1.594l-.744 1.266-2.1.065c-2.296.066-2.186.131-3.105-1.55-.94-1.724-1.028-1.68 2.93-1.68 2.844 0 3.544.065 3.631.305zm.984 7.312c.525.633.525 1.157 0 1.79-.415.502-.524.524-4.461.59-3.85.065-4.09.043-4.505-.372-.81-.807-.482-2.248.524-2.488.241-.065 2.144-.109 4.221-.087 3.718.043 3.806.065 4.221.567zm-1.924 6.33c1.093.262 2.274 1.092 4.111 2.903 1.794 1.79 2.931 3.253 4.112 5.348l.897 1.572V51.94l-13.385-.044-13.406-.065.043-4.3c.088-9.124 1.356-15.476 4.068-20.322 2.34-4.147 6.19-8.032 8.42-8.469 1.16-.218 4.177-.218 5.14 0zm32.849 13.12v3.164l-9.995.066-10.016.044v-6.55l10.016.044 9.995.066v3.165zm0 10.15v3.055l-9.995.066-10.016.043v-6.33l10.016.044 9.995.066v3.055zm0 10.258v3.056H35.052l-.066-3.121-.065-3.1 10.016.044 10.017.065v3.056z" fill="#3E3331"/><path d="M18.321 28.344c-.722.131-.765.197-.787.96-.022.7-.197.983-1.115 1.856-1.488 1.375-2.035 2.51-2.035 4.19 0 2.751 1.838 4.65 5.096 5.305l1.356.284.066.851c.087 1.266-.328 1.746-1.356 1.55-.438-.088-1.116-.437-1.51-.764-.83-.72-2.777-1.113-3.323-.677-.853.699-.11 2.62 1.618 4.191.94.873 1.115 1.157 1.115 1.79 0 1.004.481 1.266 2.253 1.178l1.356-.065.197-.939c.153-.764.437-1.135 1.4-1.964 1.4-1.2 1.99-2.336 2.012-3.842 0-1.484-.394-2.619-1.269-3.623-.94-1.113-1.662-1.484-3.5-1.812l-1.465-.262-.065-1.047c-.131-1.9.831-2.205 2.471-.808.897.786 1.138.873 2.165.873 1.422 0 1.772-.327 1.597-1.44-.175-1.092-1.072-2.38-2.253-3.187-.853-.611-.962-.786-.962-1.506 0-.459-.11-.895-.262-.983-.35-.218-1.816-.261-2.8-.109z" fill="#3E3331"/></svg>