<svg width="100" height="100" viewBox="0 0 100 100" fill="none" xmlns="http://www.w3.org/2000/svg">
<g clip-path="url(#clip0_719_2183)">
<path d="M85.8564 77.6831C84.1618 77.6844 82.5049 77.183 81.0953 76.2424C79.6857 75.3019 78.5867 73.9644 77.9373 72.3991C77.288 70.8339 77.1175 69.1112 77.4473 67.449C77.7771 65.7869 78.5925 64.2598 79.7904 63.0611C80.9882 61.8624 82.5146 61.0459 84.1765 60.7149C85.8385 60.3838 87.5613 60.5531 89.127 61.2013C90.6927 61.8495 92.031 62.9475 92.9726 64.3564C93.9142 65.7654 94.4168 67.4219 94.4168 69.1165C94.4157 71.3871 93.5136 73.5644 91.9087 75.1706C90.3037 76.7767 88.127 77.6804 85.8564 77.6831ZM85.8564 63.6748C84.7798 63.6736 83.7271 63.9917 82.8314 64.5889C81.9357 65.186 81.2373 66.0355 80.8245 67.0297C80.4116 68.0239 80.303 69.1183 80.5123 70.1743C80.7215 71.2302 81.2393 72.2004 82.0001 72.9621C82.7609 73.7238 83.7304 74.2426 84.7862 74.4531C85.842 74.6636 86.9364 74.5562 87.9311 74.1445C88.9258 73.7328 89.776 73.0354 90.3743 72.1403C90.9725 71.2453 91.2918 70.193 91.2918 69.1165C91.2912 67.6745 90.7186 66.2917 89.6996 65.2714C88.6805 64.2512 87.2983 63.677 85.8564 63.6748Z" fill="#3E3331"/>
<path d="M40.7125 77.6831C39.0178 77.6848 37.3607 77.1838 35.9508 76.2434C34.5409 75.3031 33.4416 73.9658 32.7919 72.4006C32.1423 70.8354 31.9714 69.1126 32.301 67.4503C32.6307 65.788 33.4459 64.2608 34.6436 63.0619C35.8414 61.863 37.3678 61.0462 39.0298 60.715C40.6918 60.3838 42.4147 60.553 43.9805 61.2011C45.5464 61.8493 46.8848 62.9473 47.8265 64.3562C48.7682 65.7652 49.2708 67.4218 49.2708 69.1165C49.2691 71.3865 48.3672 73.5633 46.7628 75.1692C45.1584 76.7752 42.9825 77.6793 40.7125 77.6831ZM40.7125 63.6748C39.6358 63.6732 38.5829 63.9909 37.687 64.5878C36.791 65.1848 36.0922 66.0341 35.6791 67.0283C35.2659 68.0224 35.157 69.1168 35.366 70.173C35.575 71.2291 36.0926 72.1995 36.8533 72.9614C37.614 73.7232 38.5836 74.2423 39.6394 74.453C40.6952 74.6636 41.7898 74.5563 42.7846 74.1447C43.7795 73.7331 44.6298 73.0356 45.2281 72.1406C45.8264 71.2455 46.1458 70.1931 46.1458 69.1165C46.1447 67.675 45.5722 66.2928 44.5537 65.2728C43.5352 64.2528 42.1539 63.6781 40.7125 63.6748Z" fill="#3E3331"/>
<path d="M97.1271 70.6791H92.8542C92.4398 70.6791 92.0424 70.5145 91.7494 70.2215C91.4563 69.9285 91.2917 69.531 91.2917 69.1166C91.2917 68.7022 91.4563 68.3048 91.7494 68.0118C92.0424 67.7188 92.4398 67.5541 92.8542 67.5541H96.6855V59.2687C96.6845 58.1485 96.3976 57.0471 95.8521 56.0687L87.3938 40.9041C87.3216 40.7747 87.2161 40.6669 87.0883 40.5918C86.9605 40.5168 86.815 40.4771 86.6667 40.4771H75.1396V67.5604H78.8605C79.2749 67.5604 79.6723 67.725 79.9653 68.018C80.2584 68.3111 80.423 68.7085 80.423 69.1229C80.423 69.5373 80.2584 69.9347 79.9653 70.2277C79.6723 70.5208 79.2749 70.6854 78.8605 70.6854H73.5771C73.1627 70.6854 72.7653 70.5208 72.4723 70.2277C72.1793 69.9347 72.0146 69.5373 72.0146 69.1229V38.9146C72.0146 38.5002 72.1793 38.1027 72.4723 37.8097C72.7653 37.5167 73.1627 37.3521 73.5771 37.3521H86.6667C87.3716 37.3517 88.0639 37.5396 88.6718 37.8963C89.2798 38.2531 89.7815 38.7657 90.1251 39.3812L98.5813 54.5479C99.3853 55.9915 99.8076 57.6163 99.8084 59.2687V67.9979C99.8073 68.7087 99.5245 69.39 99.0219 69.8926C98.5193 70.3952 97.8379 70.678 97.1271 70.6791Z" fill="#3E3331"/>
<path d="M33.7147 70.6793H18.7334C18.319 70.6793 17.9216 70.5146 17.6285 70.2216C17.3355 69.9286 17.1709 69.5312 17.1709 69.1168V57.1001C17.1709 56.6857 17.3355 56.2883 17.6285 55.9952C17.9216 55.7022 18.319 55.5376 18.7334 55.5376C19.1478 55.5376 19.5452 55.7022 19.8383 55.9952C20.1313 56.2883 20.2959 56.6857 20.2959 57.1001V67.5543H33.7147C34.1291 67.5543 34.5265 67.7189 34.8195 68.0119C35.1125 68.3049 35.2772 68.7024 35.2772 69.1168C35.2772 69.5312 35.1125 69.9286 34.8195 70.2216C34.5265 70.5146 34.1291 70.6793 33.7147 70.6793Z" fill="#3E3331"/>
<path d="M18.7334 51.5561C18.319 51.5561 17.9216 51.3915 17.6285 51.0985C17.3355 50.8054 17.1709 50.408 17.1709 49.9936V39.502C17.1709 39.0876 17.3355 38.6901 17.6285 38.3971C17.9216 38.1041 18.319 37.9395 18.7334 37.9395C19.1478 37.9395 19.5452 38.1041 19.8383 38.3971C20.1313 38.6901 20.2959 39.0876 20.2959 39.502V49.9999C20.2942 50.4132 20.1289 50.809 19.8361 51.1007C19.5432 51.3924 19.1467 51.5561 18.7334 51.5561Z" fill="#3E3331"/>
<path d="M73.5772 70.6793H47.7084C47.294 70.6793 46.8966 70.5147 46.6035 70.2217C46.3105 69.9287 46.1459 69.5312 46.1459 69.1168C46.1459 68.7024 46.3105 68.305 46.6035 68.012C46.8966 67.7189 47.294 67.5543 47.7084 67.5543H72.0147V26.6772H20.2959V33.1127C20.2959 33.5271 20.1313 33.9245 19.8383 34.2175C19.5452 34.5105 19.1478 34.6752 18.7334 34.6752C18.319 34.6752 17.9216 34.5105 17.6285 34.2175C17.3355 33.9245 17.1709 33.5271 17.1709 33.1127V26.3897C17.172 25.6372 17.4716 24.9158 18.0039 24.3838C18.5363 23.8519 19.2579 23.5528 20.0105 23.5522H72.3022C73.0544 23.5533 73.7755 23.8527 74.3074 24.3845C74.8392 24.9164 75.1386 25.6375 75.1397 26.3897V69.1168C75.1397 69.5312 74.975 69.9287 74.682 70.2217C74.389 70.5147 73.9916 70.6793 73.5772 70.6793Z" fill="#3E3331"/>
<path d="M24.9104 58.6626H5.0791C4.6647 58.6626 4.26727 58.498 3.97425 58.2049C3.68122 57.9119 3.5166 57.5145 3.5166 57.1001C3.5166 56.6857 3.68122 56.2883 3.97425 55.9952C4.26727 55.7022 4.6647 55.5376 5.0791 55.5376H24.9104C25.3248 55.5376 25.7222 55.7022 26.0152 55.9952C26.3082 56.2883 26.4729 56.6857 26.4729 57.1001C26.4729 57.5145 26.3082 57.9119 26.0152 58.2049C25.7222 58.498 25.3248 58.6626 24.9104 58.6626Z" fill="#3E3331"/>
<path d="M40.7125 51.5562H13.0396C12.6251 51.5562 12.2277 51.3915 11.9347 51.0985C11.6417 50.8055 11.4771 50.4081 11.4771 49.9937C11.4771 49.5793 11.6417 49.1818 11.9347 48.8888C12.2277 48.5958 12.6251 48.4312 13.0396 48.4312H40.7125C41.1269 48.4312 41.5243 48.5958 41.8173 48.8888C42.1103 49.1818 42.275 49.5793 42.275 49.9937C42.275 50.4081 42.1103 50.8055 41.8173 51.0985C41.5243 51.3915 41.1269 51.5562 40.7125 51.5562Z" fill="#3E3331"/>
<path d="M12.1791 43.3062H1.3728C0.958402 43.3062 0.560974 43.1415 0.267948 42.8485C-0.0250772 42.5555 -0.189697 42.1581 -0.189697 41.7437C-0.189697 41.3293 -0.0250772 40.9318 0.267948 40.6388C0.560974 40.3458 0.958402 40.1812 1.3728 40.1812H12.1791C12.5935 40.1812 12.9909 40.3458 13.2839 40.6388C13.5769 40.9318 13.7416 41.3293 13.7416 41.7437C13.7416 42.1581 13.5769 42.5555 13.2839 42.8485C12.9909 43.1415 12.5935 43.3062 12.1791 43.3062Z" fill="#3E3331"/>
<path d="M29.5062 34.6748H10.4312C10.0168 34.6748 9.61932 34.5102 9.3263 34.2172C9.03327 33.9241 8.86865 33.5267 8.86865 33.1123C8.86865 32.6979 9.03327 32.3005 9.3263 32.0075C9.61932 31.7144 10.0168 31.5498 10.4312 31.5498H29.5062C29.9206 31.5498 30.318 31.7144 30.611 32.0075C30.904 32.3005 31.0687 32.6979 31.0687 33.1123C31.0687 33.5267 30.904 33.9241 30.611 34.2172C30.318 34.5102 29.9206 34.6748 29.5062 34.6748Z" fill="#3E3331"/>
</g>
<defs>
<clipPath id="clip0_719_2183">
<rect width="100" height="100" fill="white"/>
</clipPath>
</defs>
</svg>
