<svg width="100" height="100" viewBox="0 0 100 100" fill="none" xmlns="http://www.w3.org/2000/svg">
<path d="M8.41581 52.4752H91.5841C91.978 52.4752 92.3558 52.3187 92.6343 52.0402C92.9128 51.7617 93.0693 51.3839 93.0693 50.99C93.0693 50.5961 92.9128 50.2184 92.6343 49.9399C92.3558 49.6614 91.978 49.5049 91.5841 49.5049H8.41581C8.02193 49.5049 7.64417 49.6614 7.36565 49.9399C7.08713 50.2184 6.93066 50.5961 6.93066 50.99C6.93066 51.3839 7.08713 51.7617 7.36565 52.0402C7.64417 52.3187 8.02193 52.4752 8.41581 52.4752Z" fill="#3E3331"/>
<path d="M21.2872 45.5447H41.0891C41.483 45.5447 41.8608 45.3883 42.1393 45.1097C42.4178 44.8312 42.5743 44.4535 42.5743 44.0596V24.2576C42.5743 23.8637 42.4178 23.486 42.1393 23.2075C41.8608 22.9289 41.483 22.7725 41.0891 22.7725H21.2872C20.8933 22.7725 20.5155 22.9289 20.237 23.2075C19.9585 23.486 19.802 23.8637 19.802 24.2576V44.0596C19.802 44.4535 19.9585 44.8312 20.237 45.1097C20.5155 45.3883 20.8933 45.5447 21.2872 45.5447ZM22.7723 25.7428H29.703V30.1982C29.703 30.5921 29.8595 30.9698 30.138 31.2484C30.4165 31.5269 30.7943 31.6834 31.1881 31.6834C31.582 31.6834 31.9598 31.5269 32.2383 31.2484C32.5168 30.9698 32.6733 30.5921 32.6733 30.1982V25.7428H39.604V42.5744H22.7723V25.7428Z" fill="#3E3331"/>
<path d="M57.9207 45.5447H77.7227C78.1166 45.5447 78.4943 45.3883 78.7728 45.1097C79.0514 44.8312 79.2078 44.4535 79.2078 44.0596V24.2576C79.2078 23.8637 79.0514 23.486 78.7728 23.2075C78.4943 22.9289 78.1166 22.7725 77.7227 22.7725H57.9207C57.5268 22.7725 57.1491 22.9289 56.8705 23.2075C56.592 23.486 56.4355 23.8637 56.4355 24.2576V44.0596C56.4355 44.4535 56.592 44.8312 56.8705 45.1097C57.1491 45.3883 57.5268 45.5447 57.9207 45.5447ZM59.4058 25.7428H66.3365V30.1982C66.3365 30.5921 66.493 30.9698 66.7715 31.2484C67.05 31.5269 67.4278 31.6834 67.8217 31.6834C68.2156 31.6834 68.5933 31.5269 68.8718 31.2484C69.1504 30.9698 69.3068 30.5921 69.3068 30.1982V25.7428H76.2375V42.5744H59.4058V25.7428Z" fill="#3E3331"/>
<path d="M13.8613 62.8712C13.8613 64.144 14.2388 65.3883 14.9459 66.4466C15.6531 67.505 16.6582 68.3299 17.8342 68.817C19.0101 69.3041 20.3041 69.4315 21.5525 69.1832C22.8009 68.9349 23.9476 68.3219 24.8477 67.4219C25.7477 66.5218 26.3606 65.3751 26.609 64.1267C26.8573 62.8783 26.7298 61.5843 26.2427 60.4084C25.7556 59.2324 24.9308 58.2273 23.8724 57.5201C22.8141 56.813 21.5698 56.4355 20.297 56.4355C18.5909 56.4382 16.9555 57.117 15.7492 58.3234C14.5428 59.5297 13.8639 61.1652 13.8613 62.8712ZM23.7623 62.8712C23.7623 63.5566 23.5591 64.2266 23.1783 64.7964C22.7975 65.3663 22.2563 65.8105 21.6231 66.0728C20.9899 66.335 20.2931 66.4037 19.6209 66.2699C18.9487 66.1362 18.3312 65.8062 17.8466 65.3216C17.362 64.8369 17.0319 64.2195 16.8982 63.5472C16.7645 62.875 16.8331 62.1783 17.0954 61.5451C17.3577 60.9118 17.8019 60.3706 18.3717 59.9899C18.9416 59.6091 19.6116 59.4058 20.297 59.4058C21.216 59.4058 22.0975 59.7709 22.7473 60.4208C23.3972 61.0707 23.7623 61.9521 23.7623 62.8712Z" fill="#3E3331"/>
<path d="M33.6633 62.8712C33.6633 64.144 34.0408 65.3883 34.7479 66.4466C35.4551 67.505 36.4602 68.3299 37.6362 68.817C38.8121 69.3041 40.1061 69.4315 41.3545 69.1832C42.6029 68.9349 43.7496 68.3219 44.6497 67.4219C45.5497 66.5218 46.1626 65.3751 46.411 64.1267C46.6593 62.8783 46.5318 61.5843 46.0447 60.4084C45.5576 59.2324 44.7328 58.2273 43.6744 57.5201C42.6161 56.813 41.3718 56.4355 40.099 56.4355C38.3929 56.4382 36.7575 57.117 35.5512 58.3234C34.3448 59.5297 33.6659 61.1652 33.6633 62.8712ZM43.5643 62.8712C43.5643 63.5566 43.3611 64.2266 42.9803 64.7964C42.5995 65.3663 42.0583 65.8105 41.4251 66.0728C40.7919 66.335 40.0951 66.4037 39.4229 66.2699C38.7507 66.1362 38.1332 65.8062 37.6486 65.3216C37.164 64.8369 36.8339 64.2195 36.7002 63.5472C36.5665 62.875 36.6351 62.1783 36.8974 61.5451C37.1597 60.9118 37.6039 60.3706 38.1737 59.9899C38.7436 59.6091 39.4136 59.4058 40.099 59.4058C41.018 59.4058 41.8995 59.7709 42.5493 60.4208C43.1992 61.0707 43.5643 61.9521 43.5643 62.8712Z" fill="#3E3331"/>
<path d="M53.4653 62.8712C53.4653 64.144 53.8428 65.3883 54.5499 66.4466C55.2571 67.505 56.2622 68.3299 57.4382 68.817C58.6141 69.3041 59.9081 69.4315 61.1565 69.1832C62.4049 68.9349 63.5516 68.3219 64.4517 67.4219C65.3517 66.5218 65.9646 65.3751 66.213 64.1267C66.4613 62.8783 66.3338 61.5843 65.8467 60.4084C65.3596 59.2324 64.5348 58.2273 63.4764 57.5201C62.4181 56.813 61.1738 56.4355 59.901 56.4355C58.1949 56.4382 56.5595 57.117 55.3532 58.3234C54.1468 59.5297 53.468 61.1652 53.4653 62.8712ZM63.3663 62.8712C63.3663 63.5566 63.1631 64.2266 62.7823 64.7964C62.4015 65.3663 61.8603 65.8105 61.2271 66.0728C60.5939 66.335 59.8971 66.4037 59.2249 66.2699C58.5527 66.1362 57.9352 65.8062 57.4506 65.3216C56.966 64.8369 56.6359 64.2195 56.5022 63.5472C56.3685 62.875 56.4371 62.1783 56.6994 61.5451C56.9617 60.9118 57.4059 60.3706 57.9757 59.9899C58.5456 59.6091 59.2156 59.4058 59.901 59.4058C60.82 59.4058 61.7015 59.7709 62.3513 60.4208C63.0012 61.0707 63.3663 61.9521 63.3663 62.8712Z" fill="#3E3331"/>
<path d="M73.2673 62.8712C73.2673 64.144 73.6448 65.3883 74.3519 66.4466C75.0591 67.505 76.0642 68.3299 77.2402 68.817C78.4161 69.3041 79.7101 69.4315 80.9585 69.1832C82.2069 68.9349 83.3536 68.3219 84.2537 67.4219C85.1537 66.5218 85.7666 65.3751 86.015 64.1267C86.2633 62.8783 86.1358 61.5843 85.6487 60.4084C85.1616 59.2324 84.3368 58.2273 83.2784 57.5201C82.2201 56.813 80.9758 56.4355 79.703 56.4355C77.9969 56.4382 76.3615 57.117 75.1552 58.3234C73.9488 59.5297 73.27 61.1652 73.2673 62.8712ZM83.1683 62.8712C83.1683 63.5566 82.9651 64.2266 82.5843 64.7964C82.2035 65.3663 81.6623 65.8105 81.0291 66.0728C80.3959 66.335 79.6991 66.4037 79.0269 66.2699C78.3547 66.1362 77.7372 65.8062 77.2526 65.3216C76.768 64.8369 76.4379 64.2195 76.3042 63.5472C76.1705 62.875 76.2391 62.1783 76.5014 61.5451C76.7637 60.9118 77.2079 60.3706 77.7777 59.9899C78.3476 59.6091 79.0176 59.4058 79.703 59.4058C80.622 59.4058 81.5035 59.7709 82.1533 60.4208C82.8032 61.0707 83.1683 61.9521 83.1683 62.8712Z" fill="#3E3331"/>
<path d="M92.5742 73.2671H8.41581C8.02193 73.2671 7.64417 73.4236 7.36565 73.7021C7.08713 73.9806 6.93066 74.3584 6.93066 74.7522C6.93066 75.1461 7.08713 75.5239 7.36565 75.8024C7.64417 76.0809 8.02193 76.2374 8.41581 76.2374H92.5742C92.9681 76.2374 93.3459 76.0809 93.6244 75.8024C93.9029 75.5239 94.0594 75.1461 94.0594 74.7522C94.0594 74.3584 93.9029 73.9806 93.6244 73.7021C93.3459 73.4236 92.9681 73.2671 92.5742 73.2671Z" fill="#3E3331"/>
</svg>
