<svg width="60" height="60" viewBox="0 0 60 60" fill="none" xmlns="http://www.w3.org/2000/svg">
<g clip-path="url(#clip0_719_2295)">
<path d="M24.4612 0.444988C18.443 2.02017 12.9209 7.652 11.1737 13.9527C10.5266 16.3047 10.4835 21.8071 11.0874 24.0728C12.2954 28.6041 15.229 32.7471 18.9607 35.1854C19.8666 35.7896 20.7079 36.3506 20.8157 36.4369C20.9452 36.5448 21.0315 37.7747 21.0315 39.3068V41.9824H19.5215C18.7018 41.9824 17.9037 42.0472 17.7959 42.1335C17.6664 42.2198 17.5586 43.0182 17.5802 43.9676V45.6507L19.3705 45.7154L21.1393 45.7801V49.4268V53.0735L23.6846 53.1382C25.0651 53.1813 29.0773 53.1598 32.5717 53.095L38.935 52.9871L38.9997 49.3836L39.0429 45.7801L40.7254 45.7154L42.3863 45.6507V43.8165V41.9824H40.7685H39.1507L39.086 39.242L39.0213 36.5016L39.7331 36.1348C41.1568 35.4227 43.6374 33.3513 44.8453 31.8624C47.4554 28.6473 48.8575 25.4753 49.4183 21.505C49.7419 19.2609 49.4399 15.7437 48.728 13.4565C46.7867 7.19887 41.3941 1.93386 35.2464 0.337097C33.3267 -0.159195 26.4888 -0.0944595 24.4612 0.444988ZM33.9306 3.89745C38.8056 5.32159 42.5157 8.51512 44.5002 13.0033C45.7729 15.8948 46.1396 19.6925 45.4277 22.5623C44.9101 24.5691 43.4001 27.6763 42.149 29.2083C40.9626 30.6972 38.8272 32.3803 37.1231 33.1571C36.4544 33.4592 35.7641 33.7828 35.5916 33.8691C35.3327 34.0202 35.2464 34.7754 35.1602 38.0121L35.0523 41.9824L33.7581 42.004C33.0462 42.004 32.3344 41.9824 32.205 41.9177C31.9893 41.853 31.9246 40.2346 31.9246 34.8401V27.8705L32.96 27.18C35.8073 25.3243 36.3034 21.6776 34.0816 19.1314C32.0756 16.8658 28.4949 16.6931 26.3594 18.7646C25.022 20.0809 24.6984 20.7929 24.6984 22.6702C24.6984 24.0512 24.7847 24.4396 25.3024 25.3243C25.8201 26.209 27.1575 27.4389 27.8477 27.6763C27.9772 27.7194 28.0635 30.3951 28.0635 34.7538V41.7666L26.6398 41.8745C25.777 41.9393 25.1299 41.8961 25.0651 41.7666C24.9789 41.6372 24.871 39.8678 24.8494 37.8395L24.7632 34.1065L22.8002 33.0923C20.1686 31.7329 17.3429 28.9494 16.1134 26.5542C13.5249 21.3755 13.6975 15.7869 16.6311 10.8671C17.4939 9.44297 19.7372 7.09098 21.204 6.07682C22.9297 4.91161 26.1437 3.7464 28.7969 3.37958C29.9185 3.22853 32.5501 3.48747 33.9306 3.89745ZM31.2559 21.7208C31.6442 22.066 31.601 23.5118 31.1912 23.9217C30.8029 24.3101 29.4655 24.3533 29.0341 23.9865C28.6459 23.6628 28.3654 22.4544 28.5811 21.8503C28.7969 21.1598 30.5656 21.0734 31.2559 21.7208ZM35.117 47.4848L35.0523 49.211L30.1774 49.2542C27.5026 49.2758 25.2161 49.211 25.0651 49.1247C24.7847 48.9521 24.6984 46.1685 24.9573 45.9096C25.022 45.8233 27.3732 45.7586 30.1342 45.7586H35.1817L35.117 47.4848Z" fill="#3E3331"/>
<path d="M1.61772 4.91156C1.25102 5.70994 0.949036 6.42201 0.905895 6.50832C0.862754 6.59463 2.4374 7.47932 4.40032 8.49348C7.91632 10.2413 7.98103 10.2844 8.28302 9.85289C8.99485 8.75242 9.72825 7.06934 9.55569 6.89672C9.27527 6.61621 2.82567 3.46584 2.52369 3.46584C2.37269 3.46584 1.96285 4.11317 1.61772 4.91156Z" fill="#3E3331"/>
<path d="M54.0342 5.01925C52.3733 5.83921 50.8633 6.68075 50.6692 6.85337C50.3457 7.13388 50.3672 7.28493 51.0575 8.66591C51.4889 9.48587 51.9634 10.1548 52.136 10.1548C52.589 10.1548 58.9092 6.87495 59.017 6.59443C59.1896 6.16288 57.7875 3.46564 57.4208 3.48722C57.2051 3.48722 55.6952 4.17771 54.0342 5.01925Z" fill="#3E3331"/>
<path d="M0 19.2179V21.1599L3.516 21.1168L7.01043 21.052L7.07514 19.1532L7.13985 17.2759H3.55914H0V19.2179Z" fill="#3E3331"/>
<path d="M52.8479 19.2179V21.1599H56.407H59.9446L60.074 20.4478C60.1603 20.081 60.1819 19.2179 60.1387 18.5706L60.074 17.3838L56.4718 17.319L52.8479 17.2759V19.2179Z" fill="#3E3331"/>
<path d="M4.55143 29.7692C2.63165 30.7186 0.992286 31.517 0.927574 31.5817C0.798151 31.7328 1.91982 34.3221 2.28652 34.7321C2.50222 34.9695 3.1062 34.7537 6.01822 33.3296C7.91643 32.4017 9.51265 31.5386 9.57736 31.4091C9.64208 31.2149 8.28313 28.0646 8.13214 28.0646C8.089 28.0646 6.49278 28.8414 4.55143 29.7692Z" fill="#3E3331"/>
<path d="M51.8341 28.3457C51.7263 28.4967 51.338 29.2088 50.9497 29.9424C50.4536 30.935 50.3458 31.3234 50.5399 31.4744C50.8634 31.7334 55.6521 34.1285 56.7954 34.6032L57.5935 34.9485L58.37 33.438C58.7798 32.5965 59.1034 31.8197 59.0603 31.7334C59.0171 31.6255 57.4209 30.7624 55.5011 29.8129C52.9558 28.5614 51.9635 28.1515 51.8341 28.3457Z" fill="#3E3331"/>
<path d="M24.5906 58.1659V60H29.9832H35.3759V58.1659V56.3318H29.9832H24.5906V58.1659Z" fill="#3E3331"/>
</g>
<defs>
<clipPath id="clip0_719_2295">
<rect width="60" height="60" fill="white"/>
</clipPath>
</defs>
</svg>
