<svg width="60" height="60" viewBox="0 0 60 60" fill="none" xmlns="http://www.w3.org/2000/svg">
<path d="M18.2775 1.01642C13.5973 1.06007 9.79186 1.12556 9.79186 1.19104C9.79186 1.45296 13.0724 7.82657 13.2911 7.95753C13.6848 8.19764 13.5317 8.87428 12.963 9.24535C12.1976 9.74738 11.1478 11.2535 10.8854 12.2357C10.5792 13.3271 10.951 14.8768 11.7383 15.9682L12.3725 16.8195L10.0324 19.155C6.05204 23.1276 3.53695 27.6895 2.22474 33.2773C1.34992 37.1189 1.2187 38.6469 1.10935 47.1814L1 55.6504H16.1124H31.2247V57.1565V58.6844L32.1652 58.8154C33.4992 59.0118 58.4095 58.859 58.7376 58.6408C58.9344 58.5098 59 54.8646 59 41.6591V24.8738H46.2496H33.4774L32.362 23.1712C30.9186 20.9885 29.5626 19.4169 28.0535 18.1946C27.3974 17.6489 26.8507 17.1032 26.8507 16.9941C26.8507 16.8631 27.0913 16.3393 27.3974 15.8372C28.5784 13.8073 28.316 11.4717 26.6976 9.87835C26.1727 9.35449 25.7572 8.76515 25.7572 8.59053C25.7572 8.39408 26.5008 6.75703 27.3974 4.96718C28.2941 3.17733 29.0377 1.5621 29.0377 1.38749C29.0377 1.19104 28.7971 1.0819 28.3379 1.0819C27.9442 1.0819 27.4193 1.06007 27.1787 1.01642C26.9382 0.994591 22.9359 0.994591 18.2775 1.01642ZM23.0452 5.09814C23.1109 5.27276 22.8265 5.99307 22.4329 6.69154L21.6893 7.95753L19.5897 8.02301C17.2934 8.0885 17.4027 8.15398 16.4842 6.47327C15.5437 4.74891 15.4563 4.79256 19.4148 4.79256C22.2579 4.79256 22.9578 4.85804 23.0452 5.09814ZM24.0294 12.4103C24.5543 13.0433 24.5543 13.5672 24.0294 14.2002C23.6139 14.7022 23.5045 14.724 19.5679 14.7895C15.7187 14.855 15.4781 14.8332 15.0626 14.4184C14.2534 13.6108 14.5814 12.1702 15.5875 11.9301C15.8281 11.8646 17.7308 11.821 19.8084 11.8428C23.5264 11.8865 23.6139 11.9083 24.0294 12.4103ZM22.1048 18.7403C23.1983 19.0022 24.3793 19.8316 26.2164 21.6433C28.0098 23.4332 29.1471 24.8956 30.3281 26.991L31.2247 28.5626V40.2621V51.9398L17.8401 51.8961L4.43363 51.8306L4.47738 47.5306C4.56486 38.4068 5.83333 32.055 8.54525 27.2093C10.8854 23.0621 14.7345 19.1768 16.9653 18.7403C18.1244 18.522 21.1425 18.522 22.1048 18.7403ZM54.954 31.8585V35.0235L44.9593 35.089L34.9427 35.1327V31.8585V28.5844L44.9593 28.6281L54.954 28.6936V31.8585ZM54.954 42.0083V45.0641L44.9593 45.1296L34.9427 45.1733V42.0083V38.8433L44.9593 38.887L54.954 38.9525V42.0083ZM54.954 52.2672V55.323H45.003H35.052L34.9864 52.2017L34.9208 49.1022L44.9374 49.1459L54.954 49.2113V52.2672Z" fill="#3E3331"/>
<path d="M18.3212 28.3443C17.5995 28.4753 17.5557 28.5408 17.5339 29.3047C17.512 30.0032 17.337 30.287 16.4185 31.1601C14.9313 32.5352 14.3845 33.6702 14.3845 35.3509C14.3845 38.1012 16.2216 40.0002 19.4803 40.655L20.8363 40.9387L20.9019 41.79C20.9894 43.056 20.5738 43.5362 19.5459 43.3398C19.1085 43.2525 18.4305 42.9032 18.0369 42.5758C17.2058 41.8555 15.2593 41.4626 14.7126 41.8992C13.8596 42.5976 14.6032 44.5184 16.331 46.09C17.2714 46.9631 17.4464 47.2469 17.4464 47.8799C17.4464 48.8839 17.9275 49.1459 19.699 49.0585L21.055 48.9931L21.2518 48.0545C21.4049 47.2905 21.6892 46.9195 22.6515 46.09C24.0512 44.8895 24.6417 43.7545 24.6636 42.2484C24.6636 40.7641 24.2699 39.6291 23.3951 38.625C22.4547 37.5118 21.733 37.1408 19.8958 36.8134L18.4305 36.5514L18.3649 35.5037C18.2337 33.6047 19.196 33.2992 20.8363 34.6961C21.733 35.4819 21.9735 35.5692 23.0014 35.5692C24.423 35.5692 24.7729 35.2418 24.598 34.1286C24.423 33.0372 23.5263 31.7494 22.3453 30.9418C21.4924 30.3306 21.383 30.156 21.383 29.4357C21.383 28.9773 21.2737 28.5408 21.1206 28.4535C20.7707 28.2352 19.3053 28.1915 18.3212 28.3443Z" fill="#3E3331"/>
</svg>
