<svg width="60" height="60" viewBox="0 0 60 60" fill="none" xmlns="http://www.w3.org/2000/svg">
<g clip-path="url(#clip0_719_2313)">
<path d="M37.1675 44.5881L42.615 47.7333" stroke="#3E3331" stroke-width="3" stroke-miterlimit="10" stroke-linecap="round" stroke-linejoin="round"/>
<path d="M40.1206 39.4734L46.6709 43.2551" stroke="#3E3331" stroke-width="3" stroke-miterlimit="10" stroke-linecap="round" stroke-linejoin="round"/>
<path d="M35.7145 28.3093C35.5856 28.8285 35.3498 29.3055 35.0317 29.7155" stroke="#3E3331" stroke-width="3" stroke-miterlimit="10" stroke-linecap="round" stroke-linejoin="round"/>
<path d="M34.1973 49.6931L36.936 51.2743" stroke="#3E3331" stroke-width="3" stroke-miterlimit="10" stroke-linecap="round" stroke-linejoin="round"/>
<path d="M15.405 21.1452L16.7793 21.9387C16.8594 21.9849 16.8867 22.0871 16.8406 22.1672L7.50985 38.3282C7.46371 38.4083 7.36143 38.4356 7.28139 38.3895L0.975758 34.749C0.895718 34.7028 0.868365 34.6005 0.914509 34.5205L10.2451 18.3593C10.2913 18.2793 10.3935 18.2519 10.4736 18.2981L11.7879 19.0569" stroke="#3E3331" stroke-width="3" stroke-miterlimit="10" stroke-linecap="round" stroke-linejoin="round"/>
<path d="M59.9164 34.749C59.9964 34.7028 60.0238 34.6005 59.9777 34.5205L50.6471 18.3593C50.6009 18.2793 50.4985 18.2519 50.4186 18.2981L44.113 21.9386C44.0329 21.9847 44.0056 22.087 44.0517 22.1671L53.3823 38.3282C53.4285 38.4083 53.5307 38.4356 53.6108 38.3895L59.9164 34.749Z" stroke="#3E3331" stroke-width="3" stroke-miterlimit="10" stroke-linecap="round" stroke-linejoin="round"/>
<path d="M14.8223 35.8538C14.6401 35.9154 14.4612 35.9956 14.2883 36.0955L10.9624 38.0158C9.93677 38.6079 9.58545 39.9194 10.1775 40.945L10.9862 42.3458C11.5783 43.3714 12.8898 43.7227 13.9154 43.1307L17.2413 41.2105C18.6267 40.4107 19.1188 38.6576 18.3675 37.2581" stroke="#3E3331" stroke-width="3" stroke-miterlimit="10" stroke-linecap="round" stroke-linejoin="round"/>
<path d="M17.3255 47.9812L19.5855 46.6765C20.9979 45.861 21.4818 44.0549 20.6663 42.6425C19.8508 41.2301 18.0447 40.7462 16.6323 41.5617L14.3723 42.8665C13.3467 43.4586 12.9954 44.77 13.5874 45.7957L14.3961 47.1964C14.9884 48.222 16.2998 48.5734 17.3255 47.9812Z" stroke="#3E3331" stroke-width="3" stroke-miterlimit="10" stroke-linecap="round" stroke-linejoin="round"/>
<path d="M21.9068 52.1559L24.0147 50.9389C25.4271 50.1234 25.911 48.3174 25.0955 46.905C24.28 45.4926 22.4739 45.0086 21.0615 45.8241L18.9536 47.0411C17.928 47.6333 17.5767 48.9447 18.1687 49.9704L18.9774 51.3711C19.5698 52.3968 20.8812 52.7481 21.9068 52.1559Z" stroke="#3E3331" stroke-width="3" stroke-miterlimit="10" stroke-linecap="round" stroke-linejoin="round"/>
<path d="M26.9678 56.0538L28.4667 55.1884C29.8791 54.3729 30.363 52.5669 29.5475 51.1545C28.732 49.7421 26.9259 49.2581 25.5135 50.0736L24.0147 50.939C22.989 51.5311 22.6377 52.8426 23.2297 53.8682L24.0384 55.269C24.6307 56.2945 25.9421 56.6459 26.9678 56.0538Z" stroke="#3E3331" stroke-width="3" stroke-miterlimit="10" stroke-linecap="round" stroke-linejoin="round"/>
<path d="M29.6526 53.9092L30.0568 54.1223L33.5568 56.143C34.5962 56.7431 35.9258 56.3733 36.506 55.3227L37.2882 53.9066C37.8531 52.8838 37.4953 51.5971 36.4834 51.0128L34.4956 49.8652L39.3305 52.6566C40.3698 53.2567 41.6993 52.8869 42.2797 51.8363L43.0619 50.4203C43.6268 49.3975 43.2689 48.1107 42.2571 47.5265L39.3069 45.8231L43.6824 48.3493C44.7081 48.9414 46.0195 48.59 46.6117 47.5644L47.4204 46.1636C48.0124 45.1381 47.6612 43.8269 46.6359 43.2346L43.9604 41.6893L47.3148 43.6264C48.3622 44.2313 49.7024 43.8506 50.2755 42.7854L51.0421 41.3607C51.5914 40.3398 51.2298 39.0672 50.2259 38.4877L50.1385 38.4373" stroke="#3E3331" stroke-width="3" stroke-miterlimit="10" stroke-linecap="round" stroke-linejoin="round"/>
<path d="M8.23511 37.0723L10.498 38.3763" stroke="#3E3331" stroke-width="3" stroke-miterlimit="10" stroke-linecap="round" stroke-linejoin="round"/>
<path d="M22.3343 25.9578C21.1502 25.9281 19.9854 25.601 18.9491 25.0029L16.1382 23.3831" stroke="#3E3331" stroke-width="3" stroke-miterlimit="10" stroke-linecap="round" stroke-linejoin="round"/>
<path d="M33.2405 22.6969L33.109 22.6211C31.5637 21.7289 29.6596 21.7289 28.1141 22.6211L20.3082 27.1279C19.8767 27.377 19.7288 27.9289 19.9779 28.3604L20.2688 28.8643C21.4899 30.9792 24.1947 31.7037 26.3097 30.4828C26.8159 30.1906 27.2682 29.9295 27.5845 29.7468C28.1297 29.4321 28.8269 29.5218 29.2566 29.9818C29.9493 30.7235 30.936 31.1872 32.0308 31.1872C33.2515 31.1872 34.3375 30.611 35.0318 29.7157L38.3913 31.6553L43.9234 34.8493L50.1382 38.4373L52.6167 37.0029" stroke="#3E3331" stroke-width="3" stroke-miterlimit="10" stroke-linecap="round" stroke-linejoin="round"/>
<path d="M44.7678 23.408L42.0765 24.9583C40.5542 25.837 38.6789 25.8367 37.1567 24.958L37.0989 24.9247" stroke="#3E3331" stroke-width="3" stroke-miterlimit="10" stroke-linecap="round" stroke-linejoin="round"/>
<path d="M19.8168 8.26439C19.6337 8.33117 18.8748 8.71732 18.1031 9.12215C17.0843 9.68719 16.7604 9.95951 16.8388 10.2055C16.9653 10.6218 19.6904 15.5383 20.3986 16.628L20.8848 17.4007L22.4538 16.5537C23.3082 16.0682 24.0495 15.5876 24.0633 15.4873C24.09 15.3682 23.2201 13.6733 22.1212 11.7116C20.66 9.11705 20.0441 8.17305 19.8168 8.26439Z" fill="#3E3331"/>
<path d="M40.0253 8.26439C40.2083 8.33117 40.9672 8.71732 41.7389 9.12215C42.7577 9.68719 43.0816 9.95951 43.0032 10.2055C42.8767 10.6218 40.1517 15.5383 39.4435 16.628L38.9573 17.4007L37.3883 16.5537C36.5338 16.0682 35.7926 15.5876 35.7787 15.4873C35.752 15.3682 36.6219 13.6733 37.7208 11.7116C39.182 9.11705 39.7979 8.17305 40.0253 8.26439Z" fill="#3E3331"/>
<path d="M32.0338 17.109C31.8411 17.138 30.99 17.162 30.1186 17.1758C28.9537 17.1672 28.5389 17.0831 28.4901 16.8295C28.4019 16.4035 28.4421 10.7824 28.5425 9.48668L28.5997 8.57553L30.3827 8.5685C31.3653 8.58591 32.2462 8.65322 32.3064 8.73469C32.3868 8.82644 32.4339 10.731 32.4077 12.9793C32.3662 15.9568 32.2771 17.0804 32.0338 17.109Z" fill="#3E3331"/>
</g>
<defs>
<clipPath id="clip0_719_2313">
<rect width="60" height="60" fill="white"/>
</clipPath>
</defs>
</svg>
