<svg width="60" height="60" viewBox="0 0 60 60" fill="none" xmlns="http://www.w3.org/2000/svg">
<path d="M20.7929 1.29019C20.7269 1.44344 20.7049 2.1878 20.7489 2.95405L20.8149 4.3552L22.5297 4.42088L24.2446 4.48656L24.1787 6.36935L24.1127 8.25215L22.9695 8.53675C21.0347 9.0184 18.4844 10.0912 16.4397 11.2515L14.505 12.368L13.2298 11.2077C12.5263 10.5728 11.9546 9.9379 11.9326 9.80655C11.9326 9.67519 12.4163 9.06219 13.0539 8.42729L14.1752 7.28886L13.0099 6.08474C12.3504 5.44985 11.7128 4.90253 11.5809 4.90253C11.2291 4.90253 4.43551 11.7769 4.43551 12.1272C4.43551 12.3242 4.9192 12.9591 5.51281 13.5283C6.59011 14.5792 6.6121 14.6011 7.16174 14.2508C7.44755 14.0538 7.97521 13.5502 8.30499 13.1124C8.61279 12.6964 8.94258 12.3461 9.03052 12.3461C9.09648 12.368 9.73407 12.8935 10.4596 13.5502L11.7568 14.7544L10.4376 16.1336C8.04117 18.6951 5.55678 23.0518 4.78728 26.0292C3.688 30.3202 3.75395 37.1508 4.89721 41.1135C6.766 47.4186 12.0206 53.5924 18.1766 56.6356C21.6063 58.3213 24.9262 59 29.829 59C36.007 59 39.8985 57.9272 44.2956 55.0374C49.4403 51.6221 53.6395 46.0175 55.0026 40.6975C55.948 37.0414 56.0799 31.1303 55.3324 27.4523C54.5849 23.7961 52.5402 19.7897 49.7481 16.5496L48.1431 14.6668L49.4183 13.5283L50.7154 12.368L51.8147 13.4627C52.4303 14.0538 53.0239 14.5354 53.1339 14.5354C53.4417 14.5354 55.4423 12.4337 55.4423 12.1272C55.4423 11.8645 48.4949 4.90253 48.231 4.90253C47.9452 4.92442 45.7686 7.09182 45.7686 7.35453C45.7686 7.50779 46.2523 8.03322 46.8679 8.51486C47.4615 8.99651 47.9452 9.47815 47.9452 9.60951C47.9672 9.71898 47.3736 10.4195 46.6481 11.1201L45.3509 12.4118L43.8559 11.5142C41.7453 10.2444 39.7885 9.39058 37.7439 8.82136C36.7765 8.53675 35.8971 8.25215 35.7651 8.16457C35.6332 8.077 35.5893 7.26696 35.6552 6.17232L35.7651 4.3552L37.3701 4.44277L38.9531 4.50845V2.86648C38.9531 1.2464 38.9531 1.22451 38.3155 1.11504C37.9417 1.02747 33.8964 0.983688 29.2794 1.00558C22.9255 1.02747 20.8588 1.09315 20.7929 1.29019ZM31.9176 5.99717C31.9176 7.7705 31.8737 7.81429 29.4992 7.70482L28.0701 7.63914L28.0042 6.04096L27.9382 4.46466H29.9389H31.9176V5.99717ZM36.0949 12.1053C38.3595 12.784 41.0417 14.0538 43.0424 15.433C44.9552 16.7466 47.9452 19.8554 49.0225 21.6287C50.2537 23.621 51.5069 26.7736 51.9686 28.9848C52.5182 31.6338 52.4303 36.3189 51.7487 38.7271C49.5282 46.7618 43.8119 52.5854 36.0949 54.7309C32.0276 55.8474 26.3113 55.6723 22.3758 54.3368C15.4284 51.9724 10.0419 46.1707 8.15109 39.0555C5.11707 27.5836 11.5149 16.0679 22.9695 12.3461C25.234 11.6237 26.2014 11.5142 30.4886 11.5799C33.8304 11.6237 34.7098 11.6893 36.0949 12.1053Z" fill="#3E3331"/>
<path d="M27.5205 21.4755C27.5425 27.8464 27.5205 28.4594 27.1688 28.6564C26.9489 28.7659 26.3993 29.2256 25.9156 29.6416C23.739 31.5463 23.6291 34.6988 25.6517 36.8444C27.2347 38.5301 29.829 39.0993 32.2035 38.2455C34.9737 37.2603 36.3808 33.6918 35.0836 31.0865C34.6439 30.2546 33.4567 28.9848 33.1049 28.9848C32.4233 28.9848 32.3574 28.328 32.2914 21.5193L32.2475 14.6449L29.873 14.5792L27.5205 14.5135V21.4755ZM31.6538 33.4291L31.7198 34.6988L30.0049 34.6332L28.312 34.5675L28.0922 33.845C27.9602 33.3634 27.9822 32.9474 28.1361 32.5752C28.378 32.0498 28.4659 32.0279 29.9829 32.0936L31.5879 32.1593L31.6538 33.4291Z" fill="#3E3331"/>
<path d="M16.0438 20.0306C15.4502 20.6655 14.9885 21.2566 14.9885 21.3879C14.9885 21.6506 16.9892 23.7305 17.2531 23.7305C17.5169 23.7305 19.8254 21.5193 19.8254 21.2785C19.8254 20.9939 17.5828 18.914 17.297 18.914C17.1871 18.914 16.6155 19.4176 16.0438 20.0306Z" fill="#3E3331"/>
<path d="M41.1735 19.9211C40.5579 20.4684 40.0522 21.0814 40.0522 21.2785C40.0522 21.6287 42.0969 23.7305 42.4487 23.7305C42.6905 23.7305 44.8891 21.5412 44.8891 21.2785C44.8891 21.0814 42.6685 18.9359 42.4487 18.914C42.3607 18.914 41.7891 19.3738 41.1735 19.9211Z" fill="#3E3331"/>
<path d="M10.6794 31.6777C10.6134 31.8529 10.5915 32.7067 10.6354 33.6043L10.7014 35.2244H12.3503H13.9992V33.3635V31.5026L12.3943 31.4369C11.2071 31.3931 10.7673 31.4588 10.6794 31.6777Z" fill="#3E3331"/>
<path d="M45.8786 31.6119C45.6147 32.0279 45.5488 34.5018 45.7906 34.9178C45.9665 35.2681 46.2523 35.3337 47.3736 35.3337C48.1651 35.3337 48.8686 35.2243 49.0225 35.071C49.1764 34.9178 49.2864 34.1953 49.2864 33.3196C49.2864 32.0936 49.2204 31.809 48.8686 31.6119C48.319 31.3273 46.0545 31.3273 45.8786 31.6119Z" fill="#3E3331"/>
<path d="M16.0658 44.1347C15.4722 44.7477 14.9885 45.3607 14.9885 45.4921C14.9885 45.8862 17.0552 47.8127 17.4509 47.8127C17.7807 47.8127 19.8254 45.7548 19.8254 45.4045C19.8254 45.2294 17.4949 42.9963 17.297 42.9963C17.2311 42.9963 16.6814 43.4998 16.0658 44.1347Z" fill="#3E3331"/>
<path d="M41.1955 44.1566C40.5579 44.7915 40.0522 45.4483 40.0522 45.6016C40.0522 45.9737 42.009 47.7909 42.4047 47.8127C42.6905 47.8127 44.0756 46.5648 44.6692 45.7767C44.9331 45.4264 44.8451 45.2513 43.7678 44.1785C43.1302 43.5436 42.5366 42.9963 42.4707 42.9963C42.4047 42.9963 41.8331 43.5217 41.1955 44.1566Z" fill="#3E3331"/>
<path d="M27.4766 50.3305C27.3887 52.3008 27.3007 52.2352 30.2688 52.1476L32.2475 52.0819L32.2695 50.3743L32.2915 48.6885H29.917H27.5646L27.4766 50.3305Z" fill="#3E3331"/>
</svg>
