<svg width="60" height="60" viewBox="0 0 60 60" fill="none" xmlns="http://www.w3.org/2000/svg">
<path d="M3.13007 3.13007C3.05574 3.18581 3 15.5608 3 30.6301V58H30.3885H57.777L57.9071 56.7179C58.1115 54.7111 58.0557 54.6554 56.3091 54.6554H54.8412V43.1166V31.5777L56.2534 32.897C57.0338 33.6216 57.7399 34.2162 57.8328 34.2162C57.9257 34.2162 58 30.3699 58 25.1115V16.0068H48.8024C43.7483 16.0068 39.6047 16.0625 39.6047 16.1368C39.6047 16.2297 40.8682 17.5118 42.4291 19.0169L45.2534 21.7669L42.652 24.3682C41.2399 25.799 39.9206 26.9696 39.7534 26.9696C39.5676 26.9696 36.8733 25.0743 33.7703 22.7331C30.6486 20.4105 27.8986 18.4037 27.6571 18.2551C27.2669 18.0135 27.0811 18.1064 24.647 19.853C23.2162 20.875 19.1284 23.7736 15.5422 26.3193C11.9747 28.8649 8.48142 31.3361 7.8125 31.8378C7.125 32.3209 6.53041 32.7297 6.45608 32.7297C6.40034 32.7297 6.34459 26.0405 6.34459 17.8649V3H4.80236C3.94764 3 3.18581 3.05574 3.13007 3.13007ZM54.6182 22.826C54.6368 24.7027 54.5997 26.2264 54.5068 26.2264C54.4324 26.2264 53.9493 25.7618 53.4476 25.2044C52.9274 24.647 52.3885 24.1824 52.2399 24.1824C52.0912 24.1824 49.3598 26.7838 46.1639 29.9797L40.3851 35.7584L37.8953 33.9003C31.5963 29.1993 27.3226 26.0405 27.2111 26.0405C27.1554 26.0405 25.9291 26.8767 24.4797 27.8986C9.50338 38.5828 6.53041 40.6639 6.4375 40.5709C6.23311 40.348 6.34459 37.2078 6.58615 37.0034C6.69764 36.8919 9.11318 35.1639 11.9189 33.1571C14.7247 31.1689 17.7348 29.0135 18.6081 28.3818C20.9307 26.6723 27.1368 22.3243 27.2483 22.3243C27.3784 22.3243 31.4476 25.3159 35.9628 28.6976C38.0811 30.2956 39.9392 31.6149 40.0507 31.6149C40.1622 31.6149 42.4662 29.4037 45.1791 26.6909L50.103 21.7483L49.0253 20.7449C48.4307 20.1875 47.9848 19.6486 48.0591 19.5372C48.1334 19.4071 49.3041 19.3514 51.3666 19.3885L54.5625 19.4443L54.6182 22.826ZM51.4966 42.2061V54.6368L46.9443 54.6926C44.4358 54.7297 42.299 54.7297 42.2061 54.6926C42.0946 54.6554 42.0203 51.8125 42.0203 46.7956V38.973L46.6284 34.3649C49.1554 31.8378 51.2736 29.7568 51.3666 29.7568C51.4409 29.7568 51.4966 35.3497 51.4966 42.2061ZM25.4831 43.0422V54.6554H20.7449H16.0068V46.4054V38.1368L17.0287 37.4307C19.6486 35.6284 24.4983 32.1166 24.8328 31.8007C25.0372 31.5963 25.2601 31.4291 25.3345 31.4291C25.4274 31.4291 25.4831 36.6503 25.4831 43.0422ZM32.6182 34.3091C36.1301 36.9476 38.0811 38.3041 38.3226 38.3041C38.4155 38.3041 38.4899 41.8716 38.4899 46.4797V54.6554H33.7517H29.0135V43.4324C29.0135 37.2635 28.9578 32.0608 28.8834 31.8936C28.7162 31.4105 29.0878 31.652 32.6182 34.3091ZM12.5321 54.4882C12.4392 54.5625 11.0456 54.6554 9.41047 54.6926L6.4375 54.7483L6.38176 49.8986L6.34459 45.0304L8.7973 43.3209C10.1537 42.3733 11.5659 41.3328 11.9189 41.0355L12.5693 40.4595L12.625 47.4088C12.6436 51.2365 12.6064 54.4139 12.5321 54.4882Z" fill="#3E3331"/>
</svg>
