<svg width="60" height="60" viewBox="0 0 60 60" fill="none" xmlns="http://www.w3.org/2000/svg">
<path d="M29.479 6.33393C33.6631 6.33393 37.4527 8.03354 40.1956 10.7808C42.9384 13.5284 44.6356 17.3251 44.6356 21.516C44.6356 25.7074 42.9384 29.5036 40.1956 32.2513C37.4527 34.9989 33.6626 36.6981 29.479 36.6981C25.2982 36.6981 21.5099 34.9981 18.7669 32.2513C16.0203 29.4991 14.3228 25.7042 14.3228 21.516C14.3228 17.328 16.02 13.5331 18.762 10.7854C21.5094 8.03401 25.2977 6.33357 29.4786 6.33357L29.479 6.33393ZM15.1696 39.8608C15.528 39.2354 16.3265 39.0197 16.9514 39.3787C17.5757 39.7377 17.791 40.5376 17.4327 41.1635L13.3601 48.2303L20.4124 47.2225C21.0139 47.1373 21.5788 47.4766 21.8033 48.0132L24.6578 54.8227L29.5289 46.37C29.8872 45.7446 30.6857 45.5289 31.3106 45.8879C31.9349 46.2468 32.1502 47.0467 31.7919 47.6727L25.657 58.3181C25.524 58.6043 25.2886 58.8438 24.9759 58.9747C24.3086 59.2545 23.5402 58.9404 23.261 58.2723L19.7799 49.9621L11.0717 51.2065C10.7929 51.2422 10.4999 51.1928 10.2375 51.0422C9.61318 50.6832 9.39789 49.8833 9.75624 49.2573L15.1707 39.8619L15.1696 39.8608ZM41.5265 41.1634C41.1681 40.538 41.3834 39.7376 42.0078 39.3786C42.6321 39.0196 43.4311 39.2353 43.7895 39.8607L49.204 49.2562C49.5623 49.8816 49.3471 50.682 48.7227 51.041C48.4603 51.1912 48.1669 51.2411 47.889 51.2017L39.1798 49.9614L35.6987 58.2717C35.4194 58.9401 34.6506 59.2538 33.9838 58.974C33.6826 58.8477 33.4545 58.6219 33.3192 58.3509L30.4982 53.4572C30.1366 52.8317 30.3496 52.029 30.974 51.6669C31.5984 51.3048 32.3997 51.5181 32.7611 52.1436L34.3038 54.8189L37.155 48.0118C37.3808 47.4761 37.9457 47.1363 38.5472 47.2219L45.5995 48.2297L41.5269 41.163L41.5265 41.1634ZM29.4801 0C35.4103 0 40.7804 2.40982 44.6671 6.30298C48.5536 10.1958 50.9591 15.5762 50.9591 21.5163C50.9591 27.4567 48.5535 32.8371 44.6671 36.7296C40.7805 40.6228 35.4099 43.0325 29.4801 43.0325C23.55 43.0325 18.1789 40.6227 14.2921 36.7296C10.4055 32.8367 8 27.4564 8 21.5163C8 15.5758 10.4056 10.1954 14.2921 6.30298C18.1786 2.4097 23.5501 0 29.4801 0ZM42.8148 8.15919C39.4032 4.74168 34.6884 2.62678 29.4801 2.62678C24.2722 2.62678 19.5565 4.74168 16.1455 8.15919C12.7339 11.5758 10.6227 16.2996 10.6227 21.517C10.6227 26.7349 12.7339 31.4578 16.1455 34.8748C19.5571 38.2923 24.2728 40.4072 29.4801 40.4072C34.6881 40.4072 39.4028 38.2923 42.8148 34.8748C46.2264 31.4582 48.3376 26.7352 48.3376 21.517C48.3376 16.3 46.2264 11.5761 42.8148 8.15919ZM20.7125 21.4877C20.201 20.9753 20.201 20.1443 20.7125 19.6315C21.2239 19.1191 22.0535 19.1191 22.5655 19.6315L27.5042 24.5792L36.3966 15.6714C36.908 15.159 37.7376 15.159 38.2496 15.6714C38.761 16.1837 38.761 17.0148 38.2496 17.5276L28.4307 27.3635C27.9192 27.8759 27.0896 27.8759 26.5777 27.3635L20.7129 21.4877H20.7125ZM38.3438 12.638C36.0767 10.3669 32.9416 8.96176 29.4797 8.96176C26.0164 8.96176 22.8808 10.3665 20.6134 12.6357C18.3481 14.9072 16.9458 18.0482 16.9458 21.5174C16.9458 24.9866 18.348 28.1278 20.6134 30.3991C22.8809 32.6683 26.0165 34.0731 29.4797 34.0731C32.9416 34.0731 36.0767 32.6675 38.3438 30.3969C40.6113 28.1254 42.0145 24.9854 42.0145 21.5174C42.0145 18.0495 40.6113 14.9099 38.3438 12.638Z" fill="#3E3331"/>
<path d="M30.3347 7.1911C34.5188 7.1911 38.3084 8.89072 41.0513 11.638C43.7942 14.3856 45.4913 18.1823 45.4913 22.3732C45.4913 26.5646 43.7942 30.3608 41.0513 33.1084C38.3084 35.8561 34.5183 37.5553 30.3347 37.5553C26.1539 37.5553 22.3656 35.8552 19.6226 33.1084C16.876 30.3562 15.1785 26.5614 15.1785 22.3732C15.1785 18.1851 16.8757 14.3903 19.6177 11.6426C22.3652 8.89118 26.1538 7.1911 30.3347 7.1911ZM16.0254 40.718C16.3837 40.0926 17.1822 39.8769 17.8071 40.2359C18.4315 40.5948 18.6467 41.3947 18.2884 42.0207L14.2158 49.0874L21.2681 48.0797C21.8696 47.9945 22.4346 48.3338 22.659 48.8704L25.5135 55.6799L30.3846 47.2272C30.7429 46.6017 31.5414 46.3861 32.1663 46.745C32.7907 47.104 33.006 47.9039 32.6476 48.5299L26.5127 59.1753C26.3797 59.4615 26.1443 59.7009 25.8317 59.8319C25.1643 60.1116 24.3959 59.7975 24.1167 59.1295L20.6356 50.8192L11.9274 52.0637C11.6486 52.0994 11.3556 52.05 11.0933 51.8993C10.4689 51.5404 10.2536 50.7405 10.612 50.1145L16.0264 40.719L16.0254 40.718ZM42.3822 42.0206C42.0238 41.3952 42.2391 40.5948 42.8635 40.2358C43.4878 39.8768 44.2868 40.0925 44.6452 40.7179L50.0597 50.1134C50.418 50.7388 50.2028 51.5392 49.5784 51.8982C49.316 52.0484 49.0226 52.0983 48.7447 52.0589L40.0355 50.8186L36.5544 59.1288C36.2752 59.7973 35.5064 60.111 34.8395 59.8312C34.5383 59.7048 34.3102 59.4791 34.1749 59.208L31.3539 54.3143C30.9923 53.6889 31.2053 52.8862 31.8297 52.5241C32.4541 52.1619 33.2554 52.3753 33.6168 53.0008L35.1595 55.6761L38.0107 48.8689C38.2365 48.3332 38.8015 47.9935 39.4029 48.0791L46.4552 49.0869L42.3822 42.0206ZM30.3359 0.857178C36.266 0.857178 41.6361 3.26699 45.5228 7.16016C49.4093 11.053 51.8148 16.4334 51.8148 22.3734C51.8148 28.3139 49.4092 33.6943 45.5228 37.5867C41.6362 41.48 36.2656 43.8897 30.3359 43.8897C24.4057 43.8897 19.0347 41.4799 15.1478 37.5867C11.2612 33.6939 8.85571 28.3135 8.85571 22.3734C8.85571 16.433 11.2614 11.0526 15.1478 7.16016C19.0343 3.26688 24.4058 0.857178 30.3359 0.857178ZM43.6705 9.01637C40.2589 5.59886 35.5442 3.48396 30.3359 3.48396C25.1279 3.48396 20.4122 5.59886 17.0012 9.01637C13.5896 12.4329 11.4784 17.1568 11.4784 22.3741C11.4784 27.5921 13.5896 32.315 17.0012 35.7319C20.4128 39.1494 25.1285 41.2643 30.3359 41.2643C35.5438 41.2643 40.2585 39.1494 43.6705 35.7319C47.0821 32.3154 49.1933 27.5924 49.1933 22.3741C49.1933 17.1572 47.0821 12.4333 43.6705 9.01637ZM21.5682 22.3448C21.0567 21.8325 21.0567 21.0014 21.5682 20.4886C22.0797 19.9763 22.9093 19.9763 23.4212 20.4886L28.3599 25.4364L37.2523 16.5285C37.7638 16.0162 38.5934 16.0162 39.1053 16.5285C39.6168 17.0409 39.6168 17.8719 39.1053 18.3847L29.2864 28.2207C28.7749 28.7331 27.9453 28.7331 27.4334 28.2207L21.5682 22.3448ZM39.1995 13.4951C36.9324 11.2241 33.7973 9.81894 30.3354 9.81894C26.8721 9.81894 23.7365 11.2236 21.4691 13.4929C19.2039 15.7644 17.8015 18.9054 17.8015 22.3746C17.8015 25.8438 19.2037 28.9849 21.4691 31.2563C23.7366 33.5255 26.8722 34.9303 30.3354 34.9303C33.7973 34.9303 36.9324 33.5247 39.1995 31.2541C41.467 28.9826 42.8702 25.8425 42.8702 22.3746C42.8702 18.9067 41.467 15.7671 39.1995 13.4951Z" fill="#3E3331"/>
</svg>
