<svg width="60" height="60" viewBox="0 0 60 60" fill="none" xmlns="http://www.w3.org/2000/svg">
<g clip-path="url(#clip0_719_2365)">
<path d="M29.1436 0.810345C26.5427 3.96552 22.4261 9.96552 20.5314 13.3621C17.7238 18.3966 15.4847 24.9828 14.6579 30.6552C14.1928 33.7586 13.8828 38.3103 14.0378 39.9655L14.1411 41.2069L12.6426 42.6379C10.7479 44.431 9.64558 45.8793 8.69824 47.8448C7.71645 49.8448 7.28584 51.5 7.06192 53.9655C6.85523 56.3793 6.83801 59.7759 7.02748 59.8966C7.18249 59.9828 7.71645 59.6552 10.2484 57.8966C11.0063 57.3793 11.8848 56.8103 12.212 56.6379C13.2283 56.1207 16.0703 55.1552 16.4148 55.2069C16.6731 55.2414 16.8971 55.6897 17.3966 57.1897C17.7583 58.2586 18.1717 59.3276 18.3439 59.5862C18.6195 60.0172 18.6367 60.0172 19.0845 59.7241C19.3429 59.569 19.8941 59.1379 20.3247 58.7931C22.5467 56.9828 25.5781 55.5517 27.3867 55.4655L28.1101 55.431L28.1446 57.6724L28.1618 59.9138L29.9359 59.9483L31.6928 60V57.6897C31.6928 56.4138 31.7445 55.3276 31.8306 55.2931C32.0028 55.1724 34.7071 55.9828 35.9128 56.5172C37.0668 57.0172 38.5653 57.9655 39.9261 59.0862C41.3901 60.2759 41.4246 60.2414 42.5958 56.8966L43.1815 55.2586L43.9221 55.3276C45.2484 55.431 48.1249 56.7931 50.5018 58.4655C51.7075 59.3103 52.741 60 52.7927 60C52.8444 60 52.8788 58.5 52.8788 56.6724C52.8788 52.8793 52.6204 51.4138 51.5698 48.7414C50.6913 46.5172 49.6578 45.0172 47.5909 42.9655L45.8168 41.2069V38.2241C45.8168 28.7931 43.2331 19.7241 38.1003 11.2069C36.2573 8.12069 30.3493 0 29.9531 0C29.8842 0 29.5225 0.362068 29.1436 0.810345ZM30.6421 6.84483C30.9349 7.31034 31.5033 8.10345 31.8823 8.62069C35.8094 13.9483 38.9098 20.3276 40.4772 26.2931C42.2514 33.1034 42.5614 39.569 41.4246 46.3621C41.0629 48.5345 39.8572 53.7414 39.6849 53.9483C39.6505 53.9828 38.772 53.6552 37.7213 53.2069C36.6707 52.7586 34.9827 52.1897 33.9664 51.9483C32.9502 51.7069 32.0201 51.4655 31.9167 51.4483C31.7445 51.3966 31.6928 50.3448 31.6928 46.8966V42.4138H29.867H28.0585L28.0757 46.7759C28.0929 49.1552 28.0929 51.2069 28.0929 51.3103C28.0757 51.4138 27.7484 51.5517 27.3523 51.6034C26.1293 51.7759 23.6146 52.569 21.9093 53.3103C21.0309 53.6897 20.2903 53.9828 20.2558 53.9483C19.963 53.6034 18.8606 48.8966 18.43 46.2069C16.432 33.7586 19.2051 21.7069 26.5772 10.6552C28.2479 8.13793 29.7981 6.03448 29.9704 6.03448C30.0393 6.03448 30.3321 6.39655 30.6421 6.84483ZM14.7268 47.0172C14.7785 47.4828 15.0368 48.6552 15.2607 49.6379C15.4847 50.6207 15.6569 51.4483 15.6397 51.4828C15.6052 51.5 15.0885 51.6552 14.4684 51.8103C13.8483 51.9655 12.8838 52.2931 12.3326 52.5172C11.7642 52.7414 11.2475 52.931 11.1613 52.931C10.6963 52.931 11.5747 50.1552 12.5737 48.4483C13.2799 47.2414 14.2789 46 14.4684 46.1207C14.5373 46.1724 14.6579 46.569 14.7268 47.0172ZM46.4197 47.1379C47.3842 48.5 48.745 51.3448 48.8655 52.2586C48.9861 53.069 48.8311 53.1034 47.522 52.5172C47.0053 52.2931 46.0924 52 45.4895 51.8448C44.8867 51.6897 44.37 51.5345 44.3355 51.5C44.2149 51.3966 45.3517 46.0345 45.4895 46.0345C45.5757 46.0345 45.989 46.5345 46.4197 47.1379Z" fill="#3E3331"/>
<path d="M28.1618 21.3277C26.6117 21.6553 25.8193 22.0001 24.5103 22.9828C21.9955 24.8622 20.5659 28.5518 21.186 31.5863C21.9955 35.6553 25.0959 38.4311 29.2814 38.8794C30.6422 39.0173 32.4335 38.6725 33.8459 38.0001C35.3272 37.3104 37.0841 35.5691 37.8075 34.0691C39.1682 31.3104 39.1855 28.6725 37.8764 26.0346C36.7051 23.707 34.6038 22.0518 31.934 21.3794C30.3838 20.9828 29.7982 20.9656 28.1618 21.3277ZM31.4689 25.0863C32.0373 25.2587 32.6746 25.638 33.243 26.1553C35.5339 28.207 35.7061 31.138 33.6737 33.4139C32.6057 34.6035 31.4689 35.0863 29.7982 35.0691C27.7312 35.0346 26.56 34.3277 25.3887 32.3277C25.0787 31.7759 24.9064 31.207 24.8548 30.4484C24.5619 26.7932 27.9552 24.0346 31.4689 25.0863Z" fill="#3E3331"/>
<path d="M28.627 28.6724C28.0414 29.2586 27.5591 29.8793 27.5591 30.0345C27.5591 30.3966 29.5571 32.4138 29.9188 32.4138C30.2633 32.4138 32.3819 30.3621 32.3819 30.0345C32.3819 29.6897 30.2805 27.5862 29.9533 27.5862C29.8155 27.5862 29.2126 28.069 28.627 28.6724Z" fill="#3E3331"/>
<path d="M2.75587 3.03444C2.37693 3.86203 2.06689 4.62065 2.06689 4.74134C2.06689 4.94823 11.0753 9.3103 11.5059 9.3103C11.7987 9.3103 13.1766 6.49996 13.0388 6.13789C12.9699 5.98272 12.7805 5.8103 12.6254 5.74134C11.9537 5.49996 4.20272 1.86203 4.06492 1.70686C3.68599 1.34479 3.4104 1.62065 2.75587 3.03444Z" fill="#3E3331"/>
<path d="M55.721 1.75858C55.5316 1.87927 53.4474 2.87927 51.0704 3.99996C47.66 5.60341 46.7643 6.08617 46.7988 6.32754C46.8677 6.94823 48.0562 9.3103 48.2973 9.3103C48.4351 9.3103 49.348 8.93099 50.3298 8.46548C51.3116 8.0172 52.4312 7.49996 52.7929 7.32754C55.8072 5.94823 57.6674 5.0172 57.7535 4.87927C57.8913 4.65513 56.4789 1.55168 56.2378 1.55168C56.1516 1.55168 55.9105 1.65513 55.721 1.75858Z" fill="#3E3331"/>
<path d="M0 15.9482V17.7585L5.30511 17.7241L10.593 17.6723L10.6447 15.8965L10.6963 14.1379H5.33956H0V15.9482Z" fill="#3E3331"/>
<path d="M49.1584 15.9482V17.7585L54.498 17.7241L59.8548 17.6723L59.9065 15.8965L59.9581 14.1379H54.5669H49.1757L49.1584 15.9482Z" fill="#3E3331"/>
<path d="M8.18155 23.9829C6.39022 24.8277 4.27162 25.8104 3.49652 26.1553C2.51473 26.5863 2.06689 26.8794 2.06689 27.0691C2.06689 27.5001 3.25538 30.0001 3.51374 30.1035C3.85823 30.2415 12.746 26.1208 12.9872 25.707C13.1422 25.4656 11.8676 22.4139 11.6264 22.4311C11.5403 22.4311 9.99012 23.138 8.18155 23.9829Z" fill="#3E3331"/>
<path d="M48.1078 22.6207C47.6255 23.4138 46.8505 25.2931 46.8849 25.569C46.9193 25.8103 47.66 26.2414 49.6925 27.1897C51.2082 27.8966 53.2579 28.8621 54.2569 29.3448C56.0655 30.2069 56.3755 30.2414 56.6856 29.6379C56.9784 29.1035 57.8741 27.1035 57.8741 26.9828C57.8741 26.931 57.2023 26.569 56.3755 26.1897C54.4636 25.3103 54.0502 25.1207 50.9154 23.6379C49.503 22.9655 48.3317 22.4138 48.2973 22.4138C48.2801 22.4138 48.194 22.5172 48.1078 22.6207Z" fill="#3E3331"/>
</g>
<defs>
<clipPath id="clip0_719_2365">
<rect width="60" height="60" fill="white"/>
</clipPath>
</defs>
</svg>
