<svg width="60" height="60" viewBox="0 0 60 60" fill="none" xmlns="http://www.w3.org/2000/svg">
<path d="M8.41021 3.12555C8.35211 3.18328 8.29401 3.91462 8.29401 4.74219V6.24335L9.80458 6.30109L11.2958 6.35883L11.3539 7.84075L11.412 9.34192H10.6761C9.37852 9.34192 7.4419 9.72683 6.39613 10.208C4.96303 10.8623 3.375 12.4212 2.61972 13.9416C2.01937 15.1734 2 15.2696 2 17.6176C2.01937 19.8116 2.0581 20.1195 2.52289 21.1395C3.22007 22.6022 4.76937 24.1226 6.41549 24.931C7.63556 25.5276 7.90669 25.5853 9.90141 25.643C12.0123 25.7008 12.3415 25.8162 12.3609 26.4129C12.3609 26.8555 13.6778 29.5114 14.5493 30.8201C15.6144 32.4368 17.8222 34.5923 19.4877 35.6701C20.1655 36.0935 21.5792 36.8248 22.625 37.2867L24.5616 38.1143V41.5208V44.9273L21.5405 44.985L18.5194 45.0427L16.8926 49.8542C16.0018 52.4908 15.2658 54.6848 15.2658 54.7041C15.2658 54.7426 14.4525 54.7618 13.4454 54.7618H11.6444L11.5282 56.2437C11.4701 57.0713 11.4894 57.8026 11.5669 57.8989C11.6444 57.9758 19.7588 58.0143 29.6162 57.9951L47.5106 57.9374V56.3977V54.858L45.6708 54.7618L43.831 54.6656L42.2042 49.7964L40.5581 44.9465H37.6144H34.6514L34.5933 41.617C34.5546 39.8079 34.5933 38.2297 34.6514 38.1528C34.7289 38.0565 35.4648 37.7101 36.2975 37.3637C39.2799 36.1704 42.3592 33.7455 44.2377 31.1473C44.993 30.108 46.0775 28.0103 46.794 26.2589C46.9877 25.7585 47.0458 25.7393 49.1954 25.6623C51.1708 25.5853 51.5194 25.5083 52.6813 24.9694C54.2887 24.1996 55.8187 22.7369 56.4771 21.3128C56.9613 20.2735 57 20.0425 57 17.4251V14.6152L56.3222 13.499C54.831 11.0548 52.7588 9.80381 49.6215 9.49588L47.6074 9.28418V7.78301V6.2626H49.2535H50.8996V4.74219C50.8996 3.5682 50.8415 3.20253 50.6092 3.1063C50.2025 2.95234 8.58451 2.97158 8.41021 3.12555ZM44.1215 13.7492C44.1215 18.0602 44.0246 21.8709 43.9085 22.7369C43.1919 27.8563 39.6479 32.3406 34.8257 34.2266C32.8697 34.9965 31.3979 35.2082 28.8609 35.0734C24.794 34.881 22.1989 33.7455 19.2165 30.8009C17.706 29.2997 17.3187 28.7993 16.5634 27.2404C15.0722 24.1804 15.0335 23.9879 14.9366 14.8654C14.8785 10.4582 14.8785 6.70525 14.956 6.55128C15.0528 6.30109 16.8539 6.2626 29.5968 6.2626H44.1215V13.7492ZM11.3926 16.2126C11.3926 18.0987 11.4507 20.2157 11.5088 20.9086C11.5863 21.6207 11.5475 22.2365 11.4701 22.275C11.1215 22.4867 8.25528 22.0248 7.51937 21.6592C6.68662 21.2358 5.77641 20.0425 5.38908 18.8878C5.02113 17.7523 5.23415 16.2511 5.89261 15.1734C6.88028 13.5952 8.27465 12.9024 10.6761 12.8254L11.3926 12.8061V16.2126ZM51.1514 13.3258C51.5387 13.499 52.2553 14.0571 52.7394 14.5768C53.9982 15.9624 54.2887 17.2904 53.6884 19.0033C53.0299 20.9663 51.4032 22.0826 48.9243 22.2943L47.6074 22.4098V17.5983V12.7677L49.0211 12.9024C49.7764 12.9794 50.7447 13.1718 51.1514 13.3258ZM31.1074 41.8094L31.0493 44.8503H29.5968H28.1444L28.0863 41.8094L28.0282 38.7879H29.5968H31.1655L31.1074 41.8094ZM38.1954 48.6417C38.2342 48.7764 38.6602 50.1428 39.1637 51.6825C39.6479 53.2222 40.0546 54.5309 40.0546 54.6078C40.0546 54.7041 35.2905 54.7618 29.4806 54.7618C19.4877 54.7618 18.9067 54.7426 19.0035 54.4154C19.0616 54.2422 19.3908 53.3569 19.7201 52.4716C20.0493 51.5863 20.456 50.3161 20.6109 49.6425L20.9208 48.4107H29.5387C36.2394 48.4107 38.1373 48.4685 38.1954 48.6417Z" fill="#3E3331"/>
<path d="M29.2677 7.84077C29.1515 7.97549 28.4155 9.43816 27.6215 11.0741C26.8275 12.7099 26.0141 14.1919 25.8011 14.3651C25.5493 14.5768 24.2518 14.8462 21.8698 15.1734C19.9138 15.4428 18.2289 15.7508 18.1127 15.8662C17.9965 15.9817 18.7518 16.8285 20.2624 18.2912C21.5599 19.5229 22.8381 20.7162 23.1092 20.9279C23.7289 21.409 23.7289 21.5437 22.7993 26.2589C22.4701 27.8756 22.2765 29.2613 22.3346 29.319C22.4701 29.4537 25.8592 27.8178 28.1057 26.5476L29.5969 25.6816L30.9138 26.4321C31.6303 26.8363 32.9279 27.5484 33.8187 27.991C34.7096 28.4529 35.6779 28.9533 35.9877 29.1265C36.2976 29.2997 36.6074 29.3767 36.6849 29.2997C36.7624 29.2228 36.5494 27.5484 36.2008 25.5468C35.8522 23.5645 35.6004 21.7747 35.6198 21.563C35.6585 21.3513 36.956 20.0041 38.486 18.5991L41.2553 16.001L40.5388 15.7508C40.1515 15.616 38.7765 15.3658 37.4789 15.2119C36.1814 15.0387 34.7289 14.8462 34.2448 14.7692L33.3733 14.6345L31.611 11.1895C30.6427 9.2842 29.7712 7.70605 29.655 7.66756C29.5582 7.62907 29.3645 7.70605 29.2677 7.84077ZM30.1198 16.0972C30.5458 17.5214 30.8751 17.7908 32.3663 17.9448C33.0828 18.0025 33.6638 18.1372 33.6638 18.2527C33.6638 18.3489 33.2765 18.7723 32.8117 19.1957C31.7078 20.1388 31.5916 20.5045 32.037 21.7747C32.5405 23.2566 32.2694 23.449 30.8363 22.5637C29.7518 21.8901 29.7131 21.8709 29.0353 22.1596C28.6479 22.3136 28.0863 22.6215 27.7958 22.8332C27.0018 23.4106 26.8275 23.1026 27.1761 21.7939C27.5247 20.466 27.3504 19.9656 26.2272 19.0995C25.2782 18.3682 25.317 18.0025 26.3046 18.0025C27.6796 18.0025 28.28 17.6176 28.9191 16.3089C29.2483 15.6738 29.5775 15.1541 29.6743 15.1926C29.7712 15.2119 29.9648 15.616 30.1198 16.0972Z" fill="#3E3331"/>
</svg>
