<svg width="40" height="40" viewBox="0 0 40 40" fill="none" xmlns="http://www.w3.org/2000/svg">
<path d="M10.662 24.9362C13.9169 28.827 17.8351 31.8904 22.3071 34.058C24.0097 34.8649 26.2868 35.8222 28.8237 35.9863C28.9809 35.9932 29.1314 36 29.2887 36C30.9913 36 32.3589 35.4119 33.4735 34.2016C33.4803 34.1948 33.494 34.1811 33.5008 34.1674C33.8974 33.6888 34.3487 33.258 34.8206 32.7998C35.1419 32.4921 35.4702 32.1707 35.7847 31.8425C37.2412 30.3245 37.2412 28.3962 35.771 26.926L31.6614 22.8164C30.964 22.0916 30.1297 21.7087 29.2545 21.7087C28.3792 21.7087 27.5381 22.0916 26.8201 22.8096L24.3722 25.2576C24.1465 25.1276 23.914 25.0114 23.6952 24.902C23.4217 24.7652 23.1687 24.6353 22.943 24.4917C20.7138 23.0763 18.6898 21.23 16.7547 18.8572C15.7768 17.6196 15.1204 16.5802 14.6623 15.5203C15.305 14.9391 15.9068 14.3305 16.488 13.7356C16.6931 13.5236 16.9051 13.3116 17.1171 13.0997C17.8556 12.3612 18.2522 11.5064 18.2522 10.638C18.2522 9.76958 17.8624 8.91484 17.1171 8.17634L15.0794 6.13862C14.84 5.8993 14.6144 5.6668 14.3819 5.42748C13.9306 4.96249 13.4588 4.48384 12.9938 4.05305C12.2895 3.36241 11.4621 3 10.5868 3C9.71841 3 8.88418 3.36241 8.15252 4.05988L5.59512 6.61728C4.66516 7.54724 4.13863 8.67551 4.02922 9.98156C3.8993 11.6158 4.20017 13.3527 4.9797 15.4519C6.17634 18.7 7.98157 21.7155 10.662 24.9362ZM5.69769 10.1252C5.77974 9.21571 6.12848 8.45669 6.78492 7.80025L9.32864 5.25653C9.72525 4.8736 10.1629 4.6753 10.5868 4.6753C11.0039 4.6753 11.4279 4.8736 11.8177 5.2702C12.2758 5.69416 12.7066 6.13862 13.1716 6.61044C13.4041 6.84977 13.6434 7.0891 13.8827 7.33527L15.9204 9.37298C16.3444 9.79693 16.5632 10.2277 16.5632 10.6517C16.5632 11.0756 16.3444 11.5064 15.9204 11.9304C15.7085 12.1424 15.4965 12.3612 15.2845 12.5731C14.6486 13.2159 14.0537 13.8245 13.3972 14.4057C13.3836 14.4194 13.3767 14.4262 13.363 14.4399C12.7955 15.0075 12.8844 15.5477 13.0211 15.9579C13.028 15.9785 13.0348 15.9921 13.0417 16.0126C13.5682 17.2777 14.2998 18.4811 15.4418 19.9171C17.4932 22.4472 19.654 24.4097 22.0336 25.9208C22.3276 26.1123 22.6422 26.2627 22.9362 26.4132C23.2097 26.5499 23.4627 26.6799 23.6884 26.8235C23.7157 26.8371 23.7362 26.8508 23.7636 26.8645C23.9892 26.9807 24.208 27.0354 24.4269 27.0354C24.9739 27.0354 25.3295 26.6867 25.4457 26.5705L28.0031 24.0131C28.3997 23.6165 28.8305 23.4045 29.2545 23.4045C29.7741 23.4045 30.1981 23.7259 30.4648 24.0131L34.5881 28.1295C35.4086 28.9501 35.4018 29.839 34.5676 30.7074C34.2804 31.0151 33.9795 31.3092 33.6581 31.6169C33.1795 32.0818 32.6803 32.5605 32.229 33.1007C31.4426 33.9486 30.5058 34.3452 29.2955 34.3452C29.1792 34.3452 29.0562 34.3384 28.9399 34.3315C26.6971 34.1879 24.6115 33.3127 23.0456 32.5673C18.7924 30.5091 15.0589 27.5893 11.9613 23.8831C9.4107 20.8129 7.69437 17.9546 6.55927 14.8912C5.85496 13.0108 5.58828 11.4996 5.69769 10.1252Z" fill="#DE5C28"/>
</svg>
