<svg width="40" height="40" viewBox="0 0 40 40" fill="none" xmlns="http://www.w3.org/2000/svg">
<path d="M33.6582 31.3025H6.34172C5.45382 31.3015 4.60258 30.9483 3.97477 30.3205C3.34696 29.6926 2.99385 28.8413 2.99292 27.9534V11.083C2.99385 10.1951 3.34696 9.34383 3.97477 8.71596C4.60258 8.08809 5.45382 7.7349 6.34172 7.73389H33.6582C34.5461 7.7349 35.3973 8.08809 36.0252 8.71596C36.653 9.34383 37.0061 10.1951 37.007 11.083V27.9534C37.0061 28.8413 36.653 29.6926 36.0252 30.3205C35.3973 30.9483 34.5461 31.3015 33.6582 31.3025ZM6.34172 9.01389C5.79317 9.01448 5.26726 9.23268 4.8794 9.62059C4.49154 10.0085 4.27343 10.5345 4.27292 11.083V27.9534C4.27343 28.502 4.49154 29.0279 4.8794 29.4158C5.26726 29.8037 5.79317 30.0219 6.34172 30.0225H33.6582C34.2068 30.0219 34.7327 29.8037 35.1205 29.4158C35.5084 29.0279 35.7265 28.502 35.727 27.9534V11.083C35.7265 10.5345 35.5084 10.0085 35.1205 9.62059C34.7327 9.23268 34.2068 9.01448 33.6582 9.01389H6.34172Z" fill="#DE5C28"/>
<path d="M20 23.2847C19.844 23.2848 19.6933 23.2279 19.5763 23.1247L4.15234 9.50932L4.99938 8.54932L20 21.7922L35.0013 8.55092L35.8483 9.51092L20.4243 23.1263C20.307 23.2292 20.1561 23.2855 20 23.2847Z" fill="#DE5C28"/>
<path d="M3.80432 29.2925L14.166 17.4864L15.1286 18.3312L4.76688 30.1373L3.80432 29.2925Z" fill="#DE5C28"/>
<path d="M24.9041 18.3188L25.8666 17.474L36.2285 29.2803L35.2659 30.1251L24.9041 18.3188Z" fill="#DE5C28"/>
</svg>
