<svg width="40" height="40" viewBox="0 0 40 40" fill="none" xmlns="http://www.w3.org/2000/svg">
<path d="M20.0001 0C11.8523 0 5.22388 6.62842 5.22388 14.7762C5.22388 17.4585 6.42683 20.3433 6.47724 20.465C6.86577 21.3872 7.63239 22.8196 8.1852 23.6593L18.3164 39.01C18.731 39.6393 19.3447 40 20.0001 40C20.6554 40 21.2691 39.6393 21.6837 39.0109L31.8158 23.6593C32.3695 22.8196 33.1352 21.3872 33.5237 20.465C33.5742 20.3442 34.7762 17.4594 34.7762 14.7762C34.7762 6.62842 28.1478 0 20.0001 0ZM31.921 19.7905C31.5742 20.6171 30.8606 21.9496 30.3642 22.7023L20.2321 38.0539C20.0322 38.3572 19.9688 38.3572 19.7689 38.0539L9.63674 22.7023C9.14043 21.9496 8.42683 20.6163 8.08003 19.7897C8.06525 19.754 6.96225 17.0987 6.96225 14.7762C6.96225 7.58714 12.811 1.73837 20.0001 1.73837C27.1891 1.73837 33.0379 7.58714 33.0379 14.7762C33.0379 17.1021 31.9323 19.7645 31.921 19.7905Z" fill="#3E3331"/>
<path d="M20.0001 6.95459C15.6863 6.95459 12.1774 10.4644 12.1774 14.7773C12.1774 19.0902 15.6863 22.6 20.0001 22.6C24.3138 22.6 27.8227 19.0902 27.8227 14.7773C27.8227 10.4644 24.3138 6.95459 20.0001 6.95459ZM20.0001 20.8616C16.6459 20.8616 13.9157 18.1323 13.9157 14.7773C13.9157 11.4222 16.6459 8.69296 20.0001 8.69296C23.3542 8.69296 26.0844 11.4222 26.0844 14.7773C26.0844 18.1323 23.3542 20.8616 20.0001 20.8616Z" fill="#3E3331"/>
</svg>
