<svg width="70" height="70" viewBox="0 0 70 70" fill="none" xmlns="http://www.w3.org/2000/svg">
<path fill-rule="evenodd" clip-rule="evenodd" d="M35.0939 66.0371C31.5607 66.0371 28.4201 65.5137 25.5412 64.7285C25.1486 64.4668 24.8869 64.0742 25.0177 63.5508C25.1486 63.0273 25.672 62.7656 26.1955 62.8965C28.8126 63.8125 31.8224 64.2051 35.0939 64.2051C51.9748 64.2051 65.715 50.4648 65.715 33.4531C65.715 16.5723 51.9748 2.83203 35.0939 2.83203C20.1759 2.83203 7.48257 13.4316 4.73452 27.957C4.73452 28.4805 4.21108 28.873 3.68764 28.7422C3.29507 28.6113 2.90249 28.2188 3.03335 27.6953C5.78139 12.2539 19.2599 1 35.0939 1C52.8908 1 67.547 15.5254 67.547 33.4531C67.547 42.2207 64.1447 50.334 57.9943 56.4844C51.8439 62.6348 43.7306 66.0371 35.0939 66.0371Z" fill="#E6E6E6"/>
<path fill-rule="evenodd" clip-rule="evenodd" d="M35.0939 57.793C32.7384 57.793 30.383 57.4004 28.0275 56.7461C27.6349 56.4844 27.3732 56.0918 27.5041 55.5684C27.6349 55.0449 28.1583 54.7832 28.6818 54.9141C30.7755 55.5684 33.0001 55.9609 35.0939 55.9609C47.3947 55.9609 57.6017 45.8848 57.6017 33.4531C57.6017 21.1523 47.3947 11.0762 35.0939 11.0762C24.1017 11.0762 14.549 19.3203 12.8478 30.1816C12.8478 30.7051 12.3244 30.9668 11.8009 30.9668C11.4083 30.8359 11.0158 30.4434 11.1466 29.9199C11.9318 24.1621 14.8107 18.9277 19.2599 15.1328C23.5783 11.3379 29.2052 9.24414 35.0939 9.24414C48.4416 9.24414 59.4337 20.1055 59.4337 33.4531C59.4337 39.9961 56.8166 46.0156 52.2365 50.7266C47.6564 55.3066 41.506 57.793 35.0939 57.793Z" fill="#E6E6E6"/>
<path fill-rule="evenodd" clip-rule="evenodd" d="M12.0626 30.9669C11.9318 30.9669 11.8009 30.9669 11.8009 30.9669L3.68764 28.7423C3.16421 28.6115 2.90249 28.088 3.03335 27.5646C3.16421 27.0412 3.68764 26.7794 4.08022 26.9103L12.1935 29.1349C12.7169 29.2658 12.9787 29.7892 12.8478 30.3126C12.7169 30.7052 12.4552 30.9669 12.0626 30.9669Z" fill="#E6E6E6"/>
<path fill-rule="evenodd" clip-rule="evenodd" d="M28.4201 56.7461C28.2892 56.7461 28.1583 56.7461 28.1583 56.7461C27.6349 56.6152 27.3732 56.0918 27.5041 55.5684L28.2892 52.0352L8.79116 52.8203C8.26772 52.8203 7.87514 52.4277 7.87514 51.9043C7.74428 51.3809 8.13686 50.9883 8.6603 50.9883L29.4669 50.2031C29.7287 50.2031 30.1212 50.334 30.2521 50.5957C30.383 50.7266 30.5138 51.1191 30.383 51.3809L29.2052 56.0918C29.2052 56.4844 28.8126 56.7461 28.4201 56.7461Z" fill="#E6E6E6"/>
<path fill-rule="evenodd" clip-rule="evenodd" d="M23.9708 68C23.7091 68 23.4474 67.8691 23.3166 67.7383L8.13686 52.5586C7.74429 52.166 7.74429 51.6426 8.13686 51.25C8.39858 50.8574 9.05288 50.8574 9.44546 51.25L23.7091 65.6445L25.1486 63.2891C25.4103 62.8965 25.9337 62.7656 26.3263 63.0273C26.8498 63.2891 26.9806 63.8125 26.7189 64.3359L24.756 67.6074C24.6251 67.7383 24.3634 68 24.1017 68C23.9708 68 23.9708 68 23.9708 68Z" fill="#E6E6E6"/>
<path fill-rule="evenodd" clip-rule="evenodd" d="M38.2345 50.334H32.215C31.6916 50.334 31.299 49.9414 31.299 49.418V47.5859C30.2521 47.3242 29.2052 46.8008 28.2892 46.2773L26.8498 47.5859C26.588 47.9785 25.9337 47.9785 25.672 47.5859L21.3537 43.3984C21.0919 43.2676 21.0919 43.0059 21.0919 42.7441C21.0919 42.4824 21.0919 42.2207 21.3537 42.0898L22.6623 40.7812C22.1388 39.8652 21.7462 38.8184 21.3537 37.7715H19.6525C19.1291 37.7715 18.7365 37.3789 18.7365 36.8555V30.8359C18.7365 30.3125 19.1291 29.9199 19.6525 29.9199H21.3537C21.7462 28.7422 22.1388 27.6953 22.6623 26.7793L21.3537 25.6016C21.0919 25.4707 21.0919 25.209 21.0919 24.9473C21.0919 24.6855 21.0919 24.4238 21.3537 24.293L25.672 19.9746C25.9337 19.582 26.588 19.582 26.8498 19.9746L28.2892 21.2832C29.0744 20.8906 30.1212 20.3672 31.1681 20.1055V18.2734C31.1681 17.75 31.6916 17.3574 32.0841 17.3574H38.1037C38.6271 17.3574 39.0197 17.75 39.0197 18.2734V20.1055C40.1974 20.3672 41.2443 20.8906 42.0294 21.2832L43.338 19.9746C43.5998 19.8438 43.8615 19.7129 43.9923 19.7129C44.2541 19.7129 44.5158 19.8438 44.6466 19.9746L48.8341 24.293C49.0958 24.5547 49.0958 24.6855 49.0958 24.9473C49.0958 25.209 49.0958 25.4707 48.8341 25.6016L47.5255 26.7793C48.1798 27.957 48.5724 28.873 48.8341 29.9199H50.797C51.1896 29.9199 51.713 30.3125 51.713 30.8359V36.8555C51.713 37.3789 51.1896 37.7715 50.797 37.7715H48.8341C48.5724 38.8184 48.049 39.8652 47.5255 40.7812L48.965 42.0898C49.2267 42.4824 49.2267 43.0059 48.965 43.3984L44.7775 47.5859C44.3849 47.9785 43.7306 47.9785 43.4689 47.5859L42.1603 46.2773C41.1134 46.8008 40.0666 47.3242 39.1505 47.5859V49.418C39.1505 49.9414 38.6271 50.334 38.2345 50.334ZM33.131 48.502H37.3185V46.8008C37.3185 46.4082 37.5802 46.0156 37.9728 45.8848C39.2814 45.623 40.59 45.0996 41.7677 44.3145C42.0294 44.0527 42.5529 44.1836 42.8146 44.4453L44.1232 45.623L47.0021 42.7441L45.8244 41.5664C45.4318 41.3047 45.4318 40.7812 45.6935 40.3887C46.2169 39.3418 47.0021 38.0332 47.2638 36.7246C47.2638 36.2012 47.6564 35.9395 48.1798 35.9395H49.881V31.752H48.1798C47.6564 31.752 47.2638 31.3594 47.2638 30.9668C47.0021 29.7891 46.4787 28.4805 45.6935 27.041C45.4318 26.7793 45.4318 26.2559 45.8244 25.9941L47.0021 24.9473L43.9923 21.9375L42.8146 23.1152C42.5529 23.377 42.0294 23.5078 41.7677 23.2461C40.8517 22.5918 39.5431 22.0684 37.9728 21.6758C37.5802 21.5449 37.1876 21.1523 37.1876 20.7598V19.1895H33.0001V20.7598C33.0001 21.1523 32.7384 21.5449 32.3458 21.6758C30.7755 22.0684 29.4669 22.5918 28.5509 23.2461C28.1583 23.5078 27.7658 23.377 27.3732 23.1152L26.1955 21.9375L23.1857 24.9473L24.3634 25.9941C24.756 26.2559 24.756 26.7793 24.4943 27.1719C23.84 28.2188 23.3166 29.5273 22.924 31.0977C22.7931 31.4902 22.5314 31.752 22.008 31.752H20.4376V35.9395H22.008C22.5314 35.9395 22.7931 36.2012 22.924 36.5938C23.3166 38.0332 23.84 39.2109 24.4943 40.3887C24.756 40.7812 24.756 41.3047 24.3634 41.5664L23.1857 42.7441L26.1955 45.623L27.3732 44.4453C27.7658 44.1836 28.1583 44.0527 28.5509 44.3145C29.7287 45.0996 31.0373 45.7539 32.215 45.8848C32.7384 46.0156 33.0001 46.4082 33.0001 46.8008V48.502H33.131Z" fill="#E6E6E6"/>
<path fill-rule="evenodd" clip-rule="evenodd" d="M35.2248 43.3984C29.8595 43.3984 25.672 39.0801 25.672 33.8457C25.672 31.2285 26.588 28.873 28.4201 27.041C30.1212 25.209 32.6076 24.1621 35.2248 24.1621C40.4591 24.1621 44.7775 28.4805 44.7775 33.8457C44.7775 36.332 43.7306 38.8184 41.8986 40.5195C40.0666 42.3516 37.7111 43.3984 35.2248 43.3984ZM35.2248 25.9941C30.7755 25.9941 27.5041 29.3965 27.5041 33.8457C27.5041 38.0332 30.9064 41.5664 35.2248 41.5664C39.4123 41.5664 42.9455 38.0332 42.9455 33.8457C42.9455 29.5273 39.4123 25.9941 35.2248 25.9941Z" fill="#E6E6E6"/>
</svg>
