<svg width="70" height="70" viewBox="0 0 70 70" fill="none" xmlns="http://www.w3.org/2000/svg">
<g clip-path="url(#clip0_795_169)">
<path d="M30.2548 47.4574C34.5139 47.4574 37.9666 44.0047 37.9666 39.7456C37.9666 35.4864 34.5139 32.0337 30.2548 32.0337C25.9956 32.0337 22.5429 35.4864 22.5429 39.7456C22.5495 44.002 25.9983 47.4509 30.2548 47.4574ZM30.2548 34.4066C33.2034 34.4066 35.5938 36.7969 35.5938 39.7456C35.5938 42.6942 33.2034 45.0845 30.2548 45.0845C27.3061 45.0845 24.9158 42.6942 24.9158 39.7456C24.9223 36.7996 27.3089 34.4131 30.2548 34.4066Z" fill="#E6E6E6"/>
<path d="M2.91919 32.8881C1.20683 33.2012 -0.0278417 34.7069 0.000548382 36.4474V43.1626C-0.0278417 44.9032 1.20683 46.4089 2.91919 46.722L9.85987 47.9796C9.93106 48.1694 10.0141 48.3592 10.0972 48.5372L6.07512 54.2203C5.09675 55.6361 5.27157 57.5492 6.49038 58.7643L11.2361 63.5101C12.4543 64.7251 14.3671 64.8949 15.7802 63.9135L21.5819 59.8914L22.1395 60.1287L23.3972 67.0694C23.7103 68.7818 25.216 70.0164 26.9565 69.9881H33.6717C35.4123 70.0164 36.918 68.7818 37.2311 67.0694L38.4887 60.1287L39.0463 59.8914L44.848 63.9135C46.2639 64.8919 48.177 64.717 49.3921 63.4982L53.2124 59.6898C53.6907 59.2376 53.712 58.4833 53.2599 58.005C52.8077 57.5267 52.0535 57.5054 51.5751 57.9575L47.7073 61.8253C47.3045 62.2286 46.6718 62.2884 46.2005 61.9677L41.4548 58.6694C44.2042 57.0484 46.562 54.8405 48.3599 52.2033C48.7268 51.6595 48.5834 50.9211 48.0395 50.5542C47.4957 50.1872 46.7573 50.3306 46.3904 50.8745C40.7577 59.0804 29.8644 61.7537 21.0729 57.0876C12.2814 52.4214 8.39052 41.9014 12.0299 32.6376C15.6694 23.3738 25.6805 18.3155 35.2972 20.8813C35.7083 20.9872 36.1448 20.8658 36.4421 20.5627C36.7395 20.2596 36.8525 19.8209 36.7387 19.4119C36.6249 19.0028 36.3015 18.6856 35.8904 18.5796C32.2214 17.6306 28.3713 17.6306 24.7022 18.5796L25.7226 12.8965C25.827 12.3257 26.3289 11.9142 26.909 11.9237H30.848C31.5033 11.9237 32.0344 11.3925 32.0344 10.7372C32.0344 10.082 31.5033 9.55077 30.848 9.55077H26.8972C25.1566 9.52238 23.6509 10.7571 23.3378 12.4694L22.0802 19.4101L21.5226 19.6474L15.7802 15.566C14.3643 14.5876 12.4512 14.7625 11.2361 15.9813L6.49038 20.727C5.27533 21.9452 5.10552 23.858 6.08699 25.2711L10.109 31.0728C10.026 31.2508 9.94292 31.4406 9.87173 31.6304L2.91919 32.8881ZM2.37343 43.1033V36.3881C2.36397 35.8079 2.77552 35.306 3.34631 35.2016L9.0175 34.1813C8.06824 37.8221 8.06824 41.6455 9.0175 45.2864L3.34631 44.266C2.78439 44.1632 2.37553 43.6746 2.37343 43.1033ZM35.8073 60.983L34.787 66.6542C34.6826 67.2249 34.1807 67.6365 33.6005 67.627H26.8972C26.317 67.6365 25.8151 67.2249 25.7107 66.6542L24.6904 60.983C28.3342 61.9402 32.1635 61.9402 35.8073 60.983ZM19.1972 58.6931L14.4514 61.9796C13.9829 62.3033 13.3505 62.2486 12.9446 61.8491L8.19885 57.1033C7.79561 56.7005 7.73583 56.0678 8.05648 55.5965L11.3429 50.8508C13.2439 54.0922 15.9439 56.7922 19.1853 58.6931H19.1972ZM8.1514 22.4118L12.8972 17.666C13.3 17.2628 13.9327 17.203 14.4039 17.5237L19.1497 20.8101C15.8909 22.7161 13.1777 25.4292 11.2717 28.6881L7.98529 23.9423C7.65723 23.4606 7.72762 22.8119 8.1514 22.4118Z" fill="#E6E6E6"/>
<path d="M67.6277 0H36.7802C35.4697 0 34.4073 1.06238 34.4073 2.37288V13.0508C34.3965 13.8947 34.853 14.6754 35.5938 15.0797C36.0723 15.364 36.6303 15.4847 37.1836 15.4237C40.5887 23.9542 39.8056 21.9729 41.0158 24.9864C39.9336 25.2246 39.1604 26.1801 39.1531 27.2881V30.8475C39.1531 32.158 40.2155 33.2203 41.526 33.2203H42.7124V36.7797C42.7124 38.0902 43.7748 39.1525 45.0853 39.1525H46.2717V46.2712C46.2717 46.6446 46.4476 46.9963 46.7463 47.2203L51.0175 50.4237V54.5763C51.0175 55.2315 51.5487 55.7627 52.2039 55.7627C52.8592 55.7627 53.3904 55.2315 53.3904 54.5763V50.4237L57.6616 47.2203C57.9603 46.9963 58.1361 46.6446 58.1361 46.2712V39.1525H59.3226C60.6331 39.1525 61.6955 38.0902 61.6955 36.7797V33.2203H62.8819C64.1924 33.2203 65.2548 32.158 65.2548 30.8475V27.2881C65.25 26.1872 64.4885 25.2341 63.4158 24.9864L67.248 15.4237H67.6277C68.9382 15.4237 70.0005 14.3614 70.0005 13.0508V2.37288C70.0005 1.06238 68.9382 0 67.6277 0ZM55.7633 45.678L52.2039 48.3475L48.6446 45.678V39.1525H55.7633V45.678ZM62.8819 30.8475H52.2039C51.5487 30.8475 51.0175 31.3786 51.0175 32.0339C51.0175 32.6892 51.5487 33.2203 52.2039 33.2203H59.3226V36.7797H45.0853V33.2203H47.4582C48.1134 33.2203 48.6446 32.6892 48.6446 32.0339C48.6446 31.3786 48.1134 30.8475 47.4582 30.8475H41.526V27.2881H62.8819V30.8475ZM60.8887 24.9153H43.5192L39.7226 15.4237H64.6378L60.8887 24.9153ZM67.6277 13.0508H36.7802V2.37288H67.6277V13.0508Z" fill="#E6E6E6"/>
<path d="M40.3395 7.11849H42.7124C43.3677 7.11849 43.8989 6.5873 43.8989 5.93205C43.8989 5.27679 43.3677 4.74561 42.7124 4.74561H40.3395C39.6843 4.74561 39.1531 5.27679 39.1531 5.93205C39.1531 6.5873 39.6843 7.11849 40.3395 7.11849Z" fill="#E6E6E6"/>
<path d="M47.4582 7.11849H64.0683C64.7236 7.11849 65.2548 6.5873 65.2548 5.93205C65.2548 5.27679 64.7236 4.74561 64.0683 4.74561H47.4582C46.8029 4.74561 46.2717 5.27679 46.2717 5.93205C46.2717 6.5873 46.8029 7.11849 47.4582 7.11849Z" fill="#E6E6E6"/>
<path d="M23.5989 26.7544C23.3027 26.1727 22.5923 25.9395 22.009 26.2324C17.0022 28.7358 14.2378 33.7426 14.2378 40.3392C14.2378 40.9944 14.769 41.5256 15.4243 41.5256C16.0795 41.5256 16.6107 40.9944 16.6107 40.3392C16.6107 34.6917 18.9006 30.4324 23.0768 28.3443C23.6586 28.0482 23.8918 27.3378 23.5989 26.7544Z" fill="#E6E6E6"/>
<path d="M26.1022 26.1019C26.7575 26.1019 27.2887 25.5707 27.2887 24.9154C27.2887 24.2602 26.7575 23.729 26.1022 23.729C25.447 23.729 24.9158 24.2602 24.9158 24.9154C24.9158 25.5707 25.447 26.1019 26.1022 26.1019Z" fill="#E6E6E6"/>
</g>
<defs>
<clipPath id="clip0_795_169">
<rect width="70" height="70" fill="white"/>
</clipPath>
</defs>
</svg>
