<svg width="70" height="70" viewBox="0 0 70 70" fill="none" xmlns="http://www.w3.org/2000/svg">
<path fill-rule="evenodd" clip-rule="evenodd" d="M69.1798 64.9999H0.820152C0.369069 64.9999 0 64.5723 0 64.0498V57.6365C0 57.1139 0.369069 56.6864 0.820152 56.6864C3.2396 56.6864 24.9736 56.5913 25.3837 56.7814L28.2953 58.159L35.7176 56.6864H69.1798C69.6309 56.6864 70 57.1139 70 57.6365V64.0498C70 64.5723 69.6309 64.9999 69.1798 64.9999ZM1.6403 63.0997H68.3597V58.5866H35.7996C34.4464 58.7291 28.5003 60.2968 27.9262 60.0118L24.8916 58.5866H1.6403V63.0997Z" fill="#E6E6E6"/>
<path fill-rule="evenodd" clip-rule="evenodd" d="M48.1839 17.7791H23.5794C20.5448 17.7791 18.0844 14.9287 18.0844 11.4133V5.95012C18.0844 5.42755 18.4534 5 18.9045 5H52.8588C53.3099 5 53.679 5.42755 53.679 5.95012V11.4133C53.72 14.9287 51.2185 17.7791 48.1839 17.7791ZM19.7247 6.90024V11.4133C19.7247 13.8836 21.447 15.8789 23.5794 15.8789H48.1839C50.3163 15.8789 52.0387 13.8836 52.0387 11.4133V6.90024H19.7247Z" fill="#E6E6E6"/>
<path fill-rule="evenodd" clip-rule="evenodd" d="M49.6192 25.7128H22.1441C21.693 25.7128 21.324 25.2853 21.324 24.7627V16.8292C21.324 15.594 22.9643 15.594 22.9643 16.8292V23.8126H48.7991V16.8292C48.7991 15.594 50.4394 15.594 50.4394 16.8292V24.7627C50.4394 25.2853 50.0703 25.7128 49.6192 25.7128Z" fill="#E6E6E6"/>
<path fill-rule="evenodd" clip-rule="evenodd" d="M29.7715 53.5989C29.3204 53.5989 28.9514 53.1713 28.9514 52.6488V24.7628C28.9514 23.4801 30.5917 23.4801 30.5917 24.7628V51.1761L41.1716 46.0454V24.7628C41.1716 23.4801 42.812 23.4801 42.812 24.7628V46.663C42.812 47.3281 42.812 47.3281 40.5565 48.4207C38.7932 49.2758 30.0996 53.5989 29.7715 53.5989Z" fill="#E6E6E6"/>
<path fill-rule="evenodd" clip-rule="evenodd" d="M29.7715 47.6603C28.9514 47.6603 28.6233 46.3776 29.3614 45.9026L41.6227 37.7315C42.5249 37.114 43.345 38.7292 42.4429 39.3467L30.1816 47.5653C30.0586 47.6603 29.8945 47.6603 29.7715 47.6603Z" fill="#E6E6E6"/>
<path fill-rule="evenodd" clip-rule="evenodd" d="M29.7715 39.5367C28.9514 39.5367 28.6233 38.2541 29.3614 37.7315L41.6227 29.5605C42.5249 28.9429 43.345 30.5581 42.4429 31.2232L30.1816 39.3942C30.0586 39.4892 29.8945 39.5367 29.7715 39.5367Z" fill="#E6E6E6"/>
<path fill-rule="evenodd" clip-rule="evenodd" d="M29.7715 31.3656C28.9514 31.3656 28.6233 30.083 29.3614 29.6079L37.85 23.9072C38.7522 23.2896 39.6133 24.9523 38.6702 25.5699C37.604 26.2825 30.3046 31.3656 29.7715 31.3656Z" fill="#E6E6E6"/>
<path fill-rule="evenodd" clip-rule="evenodd" d="M46.2976 12.3636H25.4657C24.3585 12.3636 24.3585 10.4634 25.4657 10.4634H46.2976C47.4048 10.4634 47.4048 12.3636 46.2976 12.3636Z" fill="#E6E6E6"/>
<path fill-rule="evenodd" clip-rule="evenodd" d="M25.8758 53.3609C25.3017 53.3609 24.2355 51.8882 23.5384 51.0806C22.8002 50.2255 23.9485 48.8478 24.7276 49.7504C25.8348 51.0331 27.2701 52.1732 26.4499 53.0758C26.2859 53.2658 26.0808 53.3609 25.8758 53.3609ZM21.9391 48.8478C21.734 48.8478 21.529 48.7528 21.365 48.5628L16.8541 43.3371C16.116 42.482 17.2642 41.1043 18.0434 42.0069L22.5542 47.2326C23.0463 47.8027 22.6772 48.8478 21.9391 48.8478Z" fill="#E6E6E6"/>
<path fill-rule="evenodd" clip-rule="evenodd" d="M20.8319 53.6939L13.9426 51.5561C12.8764 51.2236 13.3275 49.4183 14.3527 49.7034L21.0779 51.7936C21.9801 52.0787 21.8161 53.6939 20.8319 53.6939ZM11.3181 50.701L9.1447 50.0834C8.0785 49.7509 8.52959 47.8981 9.55478 48.2307C10.826 48.6107 12.3843 48.7533 12.0972 49.9884C12.0152 50.416 11.6462 50.701 11.3181 50.701Z" fill="#E6E6E6"/>
<path fill-rule="evenodd" clip-rule="evenodd" d="M44.1242 53.3609C43.3861 53.3609 43.017 52.3633 43.5501 51.7457C44.6163 50.4631 45.6005 48.8004 46.4206 49.7505C47.2408 50.7006 45.8055 51.8407 44.6983 53.1234C44.5343 53.2659 44.3292 53.3609 44.1242 53.3609ZM48.0199 48.8479C47.2818 48.8479 46.9537 47.8027 47.4458 47.2327L51.9566 42.007C52.7358 41.1044 53.884 42.4346 53.1049 43.3372L48.594 48.5628C48.43 48.7528 48.225 48.8479 48.0199 48.8479Z" fill="#E6E6E6"/>
<path fill-rule="evenodd" clip-rule="evenodd" d="M49.1271 53.6937C48.1839 53.6937 47.9789 52.0785 48.9221 51.7935L55.6473 49.7032C56.6725 49.4182 57.0826 51.2234 56.0574 51.5559L49.1271 53.6937ZM58.6819 50.7008C57.7387 50.7008 57.5337 49.1331 58.4769 48.8481C59.7481 48.4681 61.1424 47.6605 61.4294 48.8956C61.7165 50.1783 60.1582 50.2258 58.8869 50.6533C58.8459 50.7008 58.7639 50.7008 58.6819 50.7008Z" fill="#E6E6E6"/>
</svg>
