<svg width="70" height="70" viewBox="0 0 70 70" fill="none" xmlns="http://www.w3.org/2000/svg">
<path d="M68.8125 28.3438V4.28125C68.8125 2.47219 67.3403 1 65.5312 1H23.9688C22.1597 1 20.6875 2.47219 20.6875 4.28125V9.78828C20.308 9.76312 19.9481 9.75 19.5938 9.75C9.34094 9.75 1 18.0909 1 28.3438C1 37.0872 7.07359 44.4208 15.2188 46.3961V50.2188C15.2188 50.8061 15.3861 51.3497 15.6573 51.8277C14.7397 52.4095 14.125 53.4289 14.125 54.5938V63.3438C14.125 66.3592 16.5783 68.8125 19.5938 68.8125C22.6092 68.8125 25.0625 66.3592 25.0625 63.3438V54.5938C25.0625 53.4289 24.4478 52.4095 23.5302 51.8277C23.8014 51.3497 23.9688 50.8061 23.9688 50.2188V46.3961C28.4028 45.3177 32.2441 42.6467 34.8111 38.9816L35.6216 40.5566C35.2256 41.332 34.8888 42.148 34.6164 42.9945L31.625 43.9527V52.1109L34.6153 53.0691C34.8877 53.9167 35.2245 54.7327 35.6205 55.507L34.1855 58.295L39.9539 64.0634L42.7419 62.6284C43.5173 63.0244 44.3333 63.3612 45.1798 63.6336L46.1402 66.625H54.2984L55.2566 63.6347C56.1031 63.3623 56.9202 63.0255 57.6945 62.6295L60.4825 64.0645L66.2498 58.2961L64.8159 55.5081C65.2119 54.7337 65.5487 53.9167 65.8211 53.0702L68.8125 52.1098V43.9516L65.8222 42.9934C65.5498 42.148 65.213 41.3298 64.817 40.5555L66.2509 37.7675L60.4836 31.9991L57.6956 33.4341C56.9191 33.037 56.1031 32.7013 55.2577 32.4289L54.9984 31.625H65.5312C67.3403 31.625 68.8125 30.1528 68.8125 28.3438ZM23.9688 31.625H31.1503C29.7066 36.7645 25.0417 40.375 19.5938 40.375C12.9602 40.375 7.5625 34.9773 7.5625 28.3438C7.5625 21.7102 12.9602 16.3125 19.5938 16.3125C19.9437 16.3125 20.3091 16.3366 20.6875 16.3748V28.3438C20.6875 30.1528 22.1597 31.625 23.9688 31.625ZM22.875 63.3438C22.875 65.1528 21.4028 66.625 19.5938 66.625C17.7847 66.625 16.3125 65.1528 16.3125 63.3438V54.5938C16.3125 53.99 16.8025 53.5 17.4062 53.5H18.5H20.6875H21.7812C22.385 53.5 22.875 53.99 22.875 54.5938V63.3438ZM21.7812 50.2188C21.7812 50.8225 21.2912 51.3125 20.6875 51.3125H18.5C17.8963 51.3125 17.4062 50.8225 17.4062 50.2188V46.7975C18.1248 46.8817 18.8522 46.9375 19.5938 46.9375C20.3342 46.9375 21.0616 46.8784 21.7812 46.7931V50.2188ZM19.5938 44.75C10.5473 44.75 3.1875 37.3902 3.1875 28.3438C3.1875 19.2973 10.5473 11.9375 19.5938 11.9375C19.9405 11.9375 20.3047 11.955 20.6875 11.9845V14.1742C20.3134 14.1436 19.9492 14.125 19.5938 14.125C11.7537 14.125 5.375 20.5037 5.375 28.3438C5.375 36.1838 11.7537 42.5625 19.5938 42.5625C26.2405 42.5625 31.9017 38.0136 33.4056 31.625H35.6445C34.11 39.1872 27.4228 44.75 19.5938 44.75ZM37.8616 31.625H45.438L45.1809 32.4278C44.3355 32.7002 43.5184 33.0359 42.743 33.433L39.955 31.998L36.9078 35.0452C37.3311 33.9536 37.6505 32.8106 37.8616 31.625ZM53.5262 34.2019L54.0917 34.3616C55.1723 34.6667 56.2016 35.0911 57.1509 35.6227L57.6628 35.9092L60.0636 34.6744L63.5756 38.1864L62.3408 40.5861L62.6273 41.0991C63.1589 42.0473 63.5833 43.0777 63.8884 44.1583L64.0481 44.7238L66.625 45.5473V50.5141L64.0481 51.3387L63.8884 51.9042C63.5822 52.987 63.1578 54.0163 62.6284 54.9634L62.3408 55.4753L63.5756 57.8761L60.0636 61.3892L57.6639 60.1533L57.1509 60.4398C56.2027 60.9703 55.1734 61.3958 54.0917 61.702L53.5262 61.8617L52.7027 64.4375H47.7359L46.9113 61.8606L46.3458 61.7009C45.263 61.3947 44.2337 60.9703 43.2866 60.4409L42.7747 60.1533L40.3739 61.3892L36.8608 57.8761L38.0967 55.4753L37.8091 54.9634C37.2797 54.0173 36.8553 52.9881 36.548 51.9042L36.3883 51.3387L33.8125 50.5152V45.5484L36.3894 44.7238L36.5491 44.1583C36.8553 43.0755 37.2797 42.0462 37.8091 41.0991L38.0967 40.5872L36.8608 38.1864L40.3739 34.6744L42.7747 35.9092L43.2866 35.6227C44.2359 35.0911 45.2652 34.6656 46.3458 34.3616L46.9113 34.2019L47.7348 31.625H52.7016L53.5262 34.2019ZM46.1402 29.4375H23.9688C23.365 29.4375 22.875 28.9464 22.875 28.3438V4.28125C22.875 3.67859 23.365 3.1875 23.9688 3.1875H65.5312C66.135 3.1875 66.625 3.67859 66.625 4.28125V28.3438C66.625 28.9464 66.135 29.4375 65.5312 29.4375H54.2973H46.1402Z" fill="#E6E6E6"/>
<path d="M58.9688 5.375C55.9533 5.375 53.5 7.82828 53.5 10.8438C53.5 11.4563 53.6247 12.0359 53.8106 12.5861L48.9478 15.4233C48.1548 14.6227 47.0567 14.125 45.8438 14.125C44.7894 14.125 43.8345 14.5144 43.0788 15.1378L37.8736 11.3523C38.0705 10.8547 38.1875 10.3166 38.1875 9.75C38.1875 7.33719 36.2253 5.375 33.8125 5.375C31.3997 5.375 29.4375 7.33719 29.4375 9.75C29.4375 11.2145 30.167 12.5063 31.275 13.3003L28.4302 20.6962C28.4006 20.6952 28.3733 20.6875 28.3438 20.6875C26.5347 20.6875 25.0625 22.1597 25.0625 23.9688C25.0625 25.7778 26.5347 27.25 28.3438 27.25C30.1528 27.25 31.625 25.7778 31.625 23.9688C31.625 22.9734 31.1711 22.0919 30.4689 21.4892L33.3214 14.0747C33.4844 14.0944 33.6441 14.125 33.8125 14.125C34.8669 14.125 35.8206 13.7356 36.5775 13.1122L41.7827 16.8977C41.5858 17.3953 41.4688 17.9334 41.4688 18.5C41.4688 20.9128 43.4309 22.875 45.8438 22.875C48.2566 22.875 50.2188 20.9128 50.2188 18.5C50.2188 18.0888 50.1433 17.6983 50.0372 17.3198L54.912 14.4761C55.9139 15.5939 57.3533 16.3125 58.9688 16.3125C61.9842 16.3125 64.4375 13.8592 64.4375 10.8438C64.4375 7.82828 61.9842 5.375 58.9688 5.375ZM28.3438 25.0625C27.74 25.0625 27.25 24.5714 27.25 23.9688C27.25 23.3661 27.74 22.875 28.3438 22.875C28.9475 22.875 29.4375 23.3661 29.4375 23.9688C29.4375 24.5714 28.9475 25.0625 28.3438 25.0625ZM33.8125 11.9375C32.6061 11.9375 31.625 10.9564 31.625 9.75C31.625 8.54359 32.6061 7.5625 33.8125 7.5625C35.0189 7.5625 36 8.54359 36 9.75C36 10.9564 35.0189 11.9375 33.8125 11.9375ZM45.8438 20.6875C44.6373 20.6875 43.6562 19.7064 43.6562 18.5C43.6562 17.2936 44.6373 16.3125 45.8438 16.3125C47.0502 16.3125 48.0312 17.2936 48.0312 18.5C48.0312 19.7064 47.0502 20.6875 45.8438 20.6875ZM58.9688 14.125C57.1597 14.125 55.6875 12.6528 55.6875 10.8438C55.6875 9.03469 57.1597 7.5625 58.9688 7.5625C60.7778 7.5625 62.25 9.03469 62.25 10.8438C62.25 12.6528 60.7778 14.125 58.9688 14.125Z" fill="#E6E6E6"/>
<path d="M53.5 25.0625H55.6875V27.25H53.5V25.0625Z" fill="#E6E6E6"/>
<path d="M57.875 25.0625H60.0625V27.25H57.875V25.0625Z" fill="#E6E6E6"/>
<path d="M62.25 25.0625H64.4375V27.25H62.25V25.0625Z" fill="#E6E6E6"/>
<path d="M53.5 20.6875H64.4375V22.875H53.5V20.6875Z" fill="#E6E6E6"/>
<path d="M11.9375 28.3438H9.75C9.75 33.7709 14.1655 38.1875 19.5938 38.1875V36C15.373 36 11.9375 32.5656 11.9375 28.3438Z" fill="#E6E6E6"/>
<path d="M57.875 48.0312H55.6875C55.6875 51.0467 53.2342 53.5 50.2188 53.5V55.6875C54.4395 55.6875 57.875 52.252 57.875 48.0312Z" fill="#E6E6E6"/>
<path d="M38.1875 48.0312C38.1875 54.6648 43.5852 60.0625 50.2188 60.0625C56.8523 60.0625 62.25 54.6648 62.25 48.0312C62.25 41.3977 56.8523 36 50.2188 36C43.5852 36 38.1875 41.3977 38.1875 48.0312ZM50.2188 38.1875C55.647 38.1875 60.0625 42.603 60.0625 48.0312C60.0625 53.4595 55.647 57.875 50.2188 57.875C44.7905 57.875 40.375 53.4595 40.375 48.0312C40.375 42.603 44.7905 38.1875 50.2188 38.1875Z" fill="#E6E6E6"/>
</svg>
